<svg width="40" height="40" viewBox="0 0 40 40" fill="none" xmlns="http://www.w3.org/2000/svg">
<path d="M35.3 5.74403C34.4449 5.03056 33.4416 4.51648 32.3631 4.23911C31.2845 3.96175 30.1577 3.92806 29.0645 4.1405L26.4185 4.78851C25.0377 5.04156 23.7893 5.77078 22.8906 6.84928C21.9919 7.92777 21.4998 9.28725 21.5 10.6911V33.892C20.5053 34.0375 19.4947 34.0375 18.5 33.892V10.6911C18.505 9.30019 18.0243 7.95118 17.1408 6.87685C16.2574 5.80253 15.0267 5.07029 13.661 4.80651L10.85 4.1225C9.76874 3.92464 8.6572 3.96688 7.59406 4.24622C6.53093 4.52556 5.5422 5.03518 4.69785 5.73901C3.8535 6.44283 3.17418 7.32366 2.70797 8.31913C2.24177 9.3146 2.00007 10.4004 2 11.4996L2 27.6894C2.00009 29.4456 2.61646 31.1461 3.7417 32.4945C4.86694 33.8429 6.42966 34.7536 8.1575 35.068L17.5865 36.7825C19.1824 37.0725 20.8176 37.0725 22.4135 36.7825L31.85 35.068C33.5765 34.7521 35.1374 33.8406 36.2612 32.4924C37.3849 31.1442 38.0002 29.4445 38 27.6894V11.4996C38.0007 10.4008 37.7591 9.31528 37.2924 8.32046C36.8257 7.32563 36.1454 6.44594 35.3 5.74403Z" fill="#162E55"/>
</svg>
