<svg width="40" height="40" viewBox="0 0 40 40" fill="none" xmlns="http://www.w3.org/2000/svg">
<path fill-rule="evenodd" clip-rule="evenodd" d="M4.25952 4.18545C3.67748 4.38692 2.72607 5.2264 2.43506 5.77486C2.00972 6.62553 1.97614 7.27473 2.00972 13.6772C2.0433 19.2961 2.06568 19.8781 2.24477 20.3594C2.5246 21.0646 3.22976 21.8481 3.93492 22.2174L4.50577 22.5197L19.7917 22.5532C20.9608 22.5555 22.045 22.5579 23.0507 22.5601L23.0543 22.5602L23.0892 22.5602L23.1059 22.5603L23.1142 22.5603C34.763 22.5863 35.8259 22.5886 36.4446 22.0656C36.5066 22.0131 36.5641 21.9554 36.6275 21.8919L36.6277 21.8917L36.6278 21.8916C36.6856 21.8336 36.7483 21.7707 36.8237 21.7026C37.1371 21.4227 37.5176 20.9414 37.6855 20.628L37.9877 20.0572L38.0213 13.4085L38.0255 12.4782V12.4781V12.4781V12.4781V12.478C38.0498 7.22634 38.0544 6.22456 37.5816 5.5651C37.4701 5.40966 37.3322 5.27324 37.1617 5.10466L37.1617 5.10464C37.1251 5.06852 37.0871 5.03092 37.0475 4.99135C36.9572 4.90198 36.8856 4.82057 36.8204 4.74643L36.8203 4.74639L36.8202 4.74631C36.754 4.67103 36.6943 4.60324 36.6284 4.54221C36.0318 3.98978 34.9226 3.99097 23.7781 4.00293C22.6364 4.00415 21.3893 4.00549 20.0267 4.00636C5.85631 4.00636 4.66247 4.03994 4.25952 4.18545ZM35.4693 5.80844C35.8387 5.99872 36.0401 6.2002 36.2304 6.56957C36.4655 7.05087 36.4767 7.1628 36.4767 10.5095V13.957H20.0715H3.6551L3.68868 10.3864C3.72226 6.97252 3.73345 6.79343 3.95731 6.50241C4.27071 6.06588 4.69605 5.77486 5.13258 5.67412C5.34525 5.62935 11.5872 5.58458 20.2394 5.57339L34.9768 5.56219L35.4693 5.80844ZM36.4543 17.6955C36.4207 19.699 36.3983 19.9005 36.1857 20.1915C35.8387 20.6504 35.3126 20.975 34.7753 21.0534C34.5067 21.087 28.2648 21.1093 19.6797 21.087C5.01223 21.0659 5.0102 21.0646 4.68488 20.868C4.66487 20.856 4.64364 20.8431 4.6177 20.8295C4.33787 20.684 4.09163 20.4266 3.92373 20.1132C3.67748 19.6654 3.66629 19.4975 3.66629 17.5723V15.524H20.0827H36.4991L36.4543 17.6955ZM18.5605 18.4342V19.2177H20.0156H21.4707V18.4342V17.6507H20.0156H18.5605V18.4342ZM7.19947 25.5082C7.22186 25.4746 7.49049 25.3403 7.78151 25.206C8.07253 25.0605 8.37474 24.9373 8.4419 24.9373C8.58741 24.9261 8.85604 25.4746 9.0799 26.2693C9.50524 27.8027 9.41569 28.7989 8.72173 29.963C8.47548 30.366 8.21804 30.9144 8.13969 31.1942C7.93821 31.9442 7.9606 33.1978 8.18446 33.6231L8.37474 33.9813L7.85986 34.4626C7.58003 34.7312 7.3114 34.9551 7.26663 34.9775C7.12112 35.0335 6.69578 33.9701 6.56147 33.209C6.35999 32.0561 6.56147 30.9704 7.23305 29.5824C7.85986 28.2505 7.90463 27.6908 7.44572 26.3924C7.27782 25.9335 7.17708 25.5306 7.19947 25.5082ZM13.8033 25.206C13.5011 25.3627 13.2436 25.5194 13.2436 25.5642C13.2436 25.609 13.3667 26.0007 13.5234 26.4373C13.9376 27.6461 13.904 28.2617 13.322 29.4706C12.6728 30.8585 12.4377 31.989 12.6056 33.1083C12.7175 33.8694 13.1317 35.0111 13.2884 34.9999C13.3332 34.9887 13.5906 34.7761 13.8816 34.5074L14.4189 34.0149L14.2398 33.5896C13.9488 32.8956 14.0607 31.295 14.4525 30.5787C15.2808 29.0452 15.3367 28.8773 15.3367 27.9147C15.3367 26.8626 14.8218 25.0045 14.5308 24.9598C14.4413 24.9486 14.1167 25.0605 13.8033 25.206ZM19.6745 25.3177C19.7298 25.2893 19.7881 25.2592 19.8477 25.2283C20.1611 25.0604 20.4745 24.9485 20.564 24.9597C20.9334 25.0157 21.5266 27.3662 21.4147 28.34C21.3699 28.687 21.1237 29.3474 20.7655 30.0525C20.2394 31.1271 20.1947 31.2838 20.1499 32.1792C20.1163 32.918 20.1499 33.2649 20.2842 33.6007L20.4745 34.0485L19.9372 34.5074C19.3104 35.0558 19.2321 35.0335 18.8851 34.1268C18.706 33.6455 18.6388 33.2426 18.6388 32.4814C18.6388 31.2726 18.7619 30.8025 19.4223 29.3698C19.9036 28.34 19.926 28.2169 19.8701 27.6013C19.8253 27.2431 19.6686 26.6387 19.5119 26.2581C19.3552 25.8663 19.2433 25.5529 19.2656 25.5417C19.2746 25.5238 19.4495 25.4337 19.6745 25.3178L19.6745 25.3177ZM25.8247 25.2172L25.1867 25.5082L25.4665 26.191C25.6344 26.5827 25.7799 27.2096 25.8135 27.6349C25.8583 28.3401 25.8359 28.4408 25.3546 29.4817C24.7278 30.8473 24.5599 31.5748 24.6271 32.7725C24.6606 33.4777 24.7502 33.8806 24.974 34.3507C25.1307 34.7089 25.3098 34.9999 25.3546 34.9999C25.4106 34.9999 25.668 34.7761 25.9366 34.5074L26.4179 34.0261L26.2388 33.5C25.8807 32.4591 26.1045 31.0935 26.7873 29.9742C27 29.6273 27.235 29.1683 27.291 28.9557C27.4365 28.452 27.4365 27.2319 27.2798 26.6611C27.0671 25.7992 26.6978 24.9262 26.5746 24.9374C26.5075 24.9374 26.1717 25.0717 25.8247 25.2172ZM31.3205 25.553C31.3205 25.5082 31.5891 25.3515 31.9137 25.206C32.2271 25.0605 32.5517 24.9374 32.6189 24.9374C32.7532 24.9262 33.1114 25.8216 33.3352 26.7059C33.4024 26.9745 33.4583 27.5453 33.4583 27.9931C33.4583 28.7318 33.4248 28.8661 32.8987 29.8847C32.1376 31.3398 31.9697 32.2352 32.2495 33.2986L32.4398 34.0373L31.9697 34.5186C31.7122 34.7873 31.466 34.9999 31.4212 34.9999C31.3764 34.9999 31.1973 34.7201 31.0295 34.3843C30.8056 33.903 30.716 33.5448 30.6825 32.7837C30.6041 31.5972 30.7944 30.7578 31.4324 29.4258C31.9809 28.2617 32.0256 27.5789 31.6003 26.4037C31.4436 25.9783 31.3205 25.5866 31.3205 25.553Z" fill="#162E55"/>
</svg>
