<svg width="40" height="40" viewBox="0 0 40 40" fill="none" xmlns="http://www.w3.org/2000/svg">
<path d="M14.25 27.2687C13.9478 27.4254 13.6904 27.5822 13.6904 27.6269C13.6904 27.6717 13.8135 28.0635 13.9702 28.5C14.3843 29.7088 14.3508 30.3244 13.7687 31.5333C13.1195 32.9212 12.8845 34.0517 13.0524 35.171C13.1643 35.9322 13.5784 37.0739 13.7351 37.0627C13.7799 37.0515 14.0374 36.8388 14.3284 36.5702L14.8656 36.0777L14.6866 35.6523C14.3955 34.9584 14.5075 33.3578 14.8992 32.6414C15.7275 31.108 15.7835 30.9401 15.7835 29.9775C15.7835 28.9253 15.2686 27.0673 14.9776 27.0225C14.888 27.0113 14.5634 27.1232 14.25 27.2687Z" fill="#162E55"/>
<path d="M20.2945 27.2911C19.9923 27.4478 19.7237 27.5821 19.7125 27.6045C19.6901 27.6157 19.802 27.9291 19.9588 28.3208C20.1155 28.7014 20.2722 29.3058 20.3169 29.664C20.3729 30.2796 20.3505 30.4027 19.8692 31.4325C19.2088 32.8652 19.0857 33.3353 19.0857 34.5441C19.0857 35.3053 19.1529 35.7082 19.3319 36.1895C19.6789 37.0962 19.7573 37.1185 20.3841 36.5701L20.9214 36.1112L20.7311 35.6635C20.5968 35.3277 20.5632 34.9807 20.5968 34.2419C20.6415 33.3465 20.6863 33.1898 21.2124 32.1153C21.5705 31.4101 21.8168 30.7497 21.8616 30.4027C21.9735 29.4289 21.3803 27.0784 21.0109 27.0224C20.9214 27.0112 20.6079 27.1232 20.2945 27.2911Z" fill="#162E55"/>
<path d="M26.2715 27.2799L25.6335 27.5709L25.9133 28.2537C26.0812 28.6454 26.2267 29.2723 26.2603 29.6976C26.3051 30.4028 26.2827 30.5035 25.8014 31.5444C25.1746 32.91 25.0067 33.6375 25.0739 34.8352C25.1074 35.5404 25.197 35.9433 25.4208 36.4134C25.5775 36.7716 25.7566 37.0626 25.8014 37.0626C25.8574 37.0626 26.1148 36.8388 26.3834 36.5701L26.8647 36.0888L26.6857 35.5628C26.3275 34.5218 26.5513 33.1562 27.2341 32.0369C27.4468 31.69 27.6818 31.231 27.7378 31.0184C27.8833 30.5147 27.8833 29.2946 27.7266 28.7238C27.5139 27.8619 27.1446 26.9889 27.0214 27.0001C26.9543 27.0001 26.6185 27.1344 26.2715 27.2799Z" fill="#162E55"/>
<path fill-rule="evenodd" clip-rule="evenodd" d="M16.3901 3.09217C11.6341 3.50617 7.40323 4.87945 5.64625 6.55565L5 7.17161V12.2507C5 15.906 5.03029 17.3904 5.12117 17.5519C5.36351 18.0164 6.82767 19.9249 6.97913 19.9855C7.36284 20.1369 7.64557 20.036 8.00909 19.6422C8.3726 19.2282 8.91787 18.8343 9.10973 18.8343C9.20061 18.8343 9.95793 20.4904 9.94783 20.6721C9.94783 20.7125 9.71558 20.8438 9.44295 20.9649C8.89768 21.1972 8.53416 21.5708 8.53416 21.8737C8.53416 21.9747 8.77651 22.5705 9.06934 23.1965C9.48334 24.0851 9.71558 24.4284 10.069 24.7414C11.0889 25.6401 13.0882 26.3369 15.6934 26.6802C17.3393 26.9023 22.2972 26.9225 23.933 26.7206C26.9219 26.3571 28.8506 25.7108 29.9411 24.691C30.3248 24.3274 30.5369 24.0043 30.9408 23.0955C31.2235 22.4695 31.4557 21.8939 31.4557 21.8131C31.4557 21.49 31.2942 21.3285 30.6378 20.9952L29.9411 20.6519L30.2036 20.0663C30.345 19.7532 30.5369 19.319 30.6176 19.107C30.6984 18.905 30.8196 18.7334 30.8802 18.7334C31.0417 18.7334 31.6678 19.2282 32.0212 19.622C32.2635 19.8946 32.4049 19.9754 32.6675 19.9754C33.0411 19.9754 33.2632 19.7633 34.3638 18.3396L34.9394 17.5923L34.9697 12.4022L35 7.212L34.4951 6.68692C32.8189 4.91984 28.4567 3.50617 23.418 3.08207C22.0347 2.971 17.6927 2.971 16.3901 3.09217ZM22.8223 4.49574C25.3871 4.68759 27.7095 5.1016 29.6382 5.71755C30.7489 6.07097 32.4251 6.86868 33.0512 7.32307L33.4753 7.64619V12.4022V17.1682L33.0613 17.6428L32.6574 18.1275L32.203 17.8246C31.1427 17.0875 30.2339 16.8451 29.9108 17.1884C29.6483 17.4914 28.2043 21.0457 28.275 21.2477C28.3558 21.5203 28.6183 21.7122 29.1636 21.9141C29.4261 22.0151 29.6685 22.1363 29.6988 22.1767C29.7694 22.2978 29.1434 23.4994 28.901 23.7115C27.3864 24.9636 22.8829 25.6704 18.1269 25.3978C14.5624 25.1958 12.4722 24.7112 11.1393 23.7721C10.9374 23.6307 10.2508 22.419 10.2508 22.217C10.2508 22.1968 10.5133 22.0858 10.8263 21.9646C11.5735 21.6819 11.6644 21.6011 11.6644 21.2174C11.6644 20.9145 10.3517 17.6226 10.1195 17.3298C9.77617 16.9158 9.10973 17.0471 7.99899 17.7539C7.68596 17.9559 7.38304 18.1275 7.34265 18.1275C7.30226 18.1275 7.1003 17.8751 6.89835 17.5822L6.51464 17.037V12.3416V7.64619L6.86806 7.37356C7.9485 6.55565 10.5436 5.53579 12.6237 5.11169C15.8044 4.47554 19.4194 4.2534 22.8223 4.49574ZM16.1073 15.1588C14.8653 15.3507 13.1891 15.7647 12.3914 16.0777C11.7653 16.3301 11.4624 16.6028 11.4624 16.9259C11.4624 17.0269 11.836 17.9962 12.2904 19.0868C12.9165 20.6216 13.1588 21.0962 13.3406 21.177C13.5122 21.2578 13.8757 21.2477 14.6129 21.1669C15.1884 21.1063 16.2689 21.0255 17.0161 20.9952C18.6014 20.9246 18.9649 20.8438 19.1265 20.4904C19.1972 20.3288 19.2376 19.4503 19.2376 17.9155C19.2376 15.6334 19.1972 15.2699 18.8943 15.078C18.7125 14.9569 17.1474 15.0074 16.1073 15.1588ZM17.7027 17.9458L17.6724 19.4907L16.5011 19.5513C15.865 19.5917 15.0673 19.6523 14.734 19.6926L14.1383 19.7532L13.6536 18.5718C13.28 17.663 13.1992 17.3702 13.3002 17.3096C13.6334 17.0976 15.7034 16.6836 17.6523 16.421C17.6926 16.4109 17.7128 17.1077 17.7027 17.9458ZM20.7522 17.9256C20.7522 15.4819 20.7623 15.3911 20.9643 15.1891C21.1763 14.9771 21.2571 14.9771 22.3072 15.0276C24.1652 15.1285 26.8209 15.7041 27.9215 16.2393C28.6889 16.6129 28.6889 16.7038 27.7095 19.0363C27.0733 20.5812 26.8108 21.1063 26.6391 21.1871C26.4776 21.2578 26.1039 21.2477 25.4274 21.1669C24.8821 21.0962 23.8522 21.0255 23.1251 20.9952C21.459 20.9347 21.1864 20.8842 20.9441 20.6418C20.7623 20.4601 20.7522 20.2884 20.7522 17.9256ZM26.7906 17.4207C26.831 17.3197 25.9828 17.0673 24.7105 16.8148C24.1753 16.7038 23.3978 16.5826 23.004 16.5321L22.2668 16.4513V17.9458C22.2668 18.8112 22.2198 19.2008 22.392 19.3835C22.5675 19.5695 22.9705 19.5408 23.8825 19.5816C24.5186 19.622 25.2254 19.6725 25.4476 19.7027L25.8515 19.7633L26.3059 18.6324C26.4321 18.3194 26.5482 18.0266 26.6353 17.807C26.7224 17.5873 26.7805 17.4409 26.7906 17.4207Z" fill="#162E55"/>
</svg>
