<svg width="40" height="40" viewBox="0 0 40 40" fill="none" xmlns="http://www.w3.org/2000/svg">
<path d="M23.9205 11.25C22.4384 11.25 21.1974 12.2816 20.8762 13.6659L12.1023 13.6659C11.6316 13.6659 11.25 14.0475 11.25 14.5182C11.25 14.9889 11.6316 15.3705 12.1023 15.3705L20.9574 15.3705C21.373 16.6083 22.5426 17.5 23.9205 17.5C25.2983 17.5 26.4679 16.6083 26.8835 15.3705H29.1477C29.6184 15.3705 30 14.9889 30 14.5182C30 14.0475 29.6184 13.6659 29.1477 13.6659H26.9647C26.6435 12.2816 25.4025 11.25 23.9205 11.25Z" fill="white"/>
<path d="M15.9659 17.5C14.5285 17.5 13.3178 18.4704 12.9532 19.7918L12.0799 19.8147C11.6094 19.8271 11.238 20.2185 11.2503 20.689C11.2626 21.1596 11.6541 21.531 12.1246 21.5187L12.9641 21.4967C13.3414 22.7984 14.5425 23.75 15.9659 23.75C17.3811 23.75 18.5766 22.8093 18.9611 21.519H29.1477C29.6184 21.519 30 21.1375 30 20.6668C30 20.1961 29.6184 19.8145 29.1477 19.8145H18.9848C18.6278 18.4815 17.4115 17.5 15.9659 17.5Z" fill="white"/>
<path d="M23.9205 23.75C22.5119 23.75 21.3209 24.682 20.9307 25.9629H12.1023C11.6316 25.9629 11.25 26.3445 11.25 26.8152C11.25 27.2859 11.6316 27.6675 12.1023 27.6675H20.8968C21.2476 29.0096 22.4684 30 23.9205 30C25.3725 30 26.5933 29.0096 26.9441 27.6675H29.1477C29.6184 27.6675 30 27.2859 30 26.8152C30 26.3445 29.6184 25.9629 29.1477 25.9629H26.9103C26.52 24.682 25.329 23.75 23.9205 23.75Z" fill="white"/>
<path fill-rule="evenodd" clip-rule="evenodd" d="M25.3003 4.27684C21.697 3.5679 17.9822 3.57452 14.3817 4.29626L13.2915 4.51479C7.7069 5.63424 3.75 10.3804 3.75 15.8295C3.75 16.5199 3.19036 17.0795 2.5 17.0795C1.80964 17.0795 1.25 16.5199 1.25 15.8295C1.25 9.13468 6.1017 3.40627 12.8001 2.06356L13.8903 1.84502C17.8123 1.05885 21.858 1.05165 25.7829 1.82386L27.1876 2.10023C33.8873 3.41836 38.75 9.13795 38.75 15.8295C38.75 16.5199 38.1904 17.0795 37.5 17.0795C36.8096 17.0795 36.25 16.5199 36.25 15.8295C36.25 10.3874 32.2871 5.65146 26.705 4.5532L25.3003 4.27684ZM37.5 22.9205C38.1904 22.9205 38.75 23.4801 38.75 24.1705C38.75 30.8653 33.8983 36.5937 27.1999 37.9364L26.1097 38.155C22.1877 38.9412 18.142 38.9483 14.2171 38.1761L12.8124 37.8998C6.11273 36.5816 1.25 30.8621 1.25 24.1705C1.25 23.4801 1.80964 22.9205 2.5 22.9205C3.19036 22.9205 3.75 23.4801 3.75 24.1705C3.75 29.6126 7.7129 34.3485 13.295 35.4468L14.6997 35.7232C18.303 36.4321 22.0178 36.4255 25.6183 35.7037L26.7085 35.4852C32.2931 34.3658 36.25 29.6196 36.25 24.1705C36.25 23.4801 36.8096 22.9205 37.5 22.9205Z" fill="white"/>
</svg>
