<svg width="24" height="24" viewBox="0 0 24 24" fill="none" xmlns="http://www.w3.org/2000/svg">
<path d="M6.96883 15.3407L6.96883 8.6593C6.96883 5.82179 9.26909 3.52153 12.1066 3.52153C14.9441 3.52153 17.2444 5.82179 17.2444 8.6593L17.2444 15.3407C17.2444 18.1782 14.9441 20.4785 12.1066 20.4785C9.26909 20.4785 6.96883 18.1782 6.96883 15.3407ZM7.91159 15.3407C7.91159 17.6575 9.78976 19.5357 12.1066 19.5357C14.4234 19.5357 16.3016 17.6575 16.3016 15.3407L16.3016 8.6593C16.3016 6.34246 14.4234 4.46429 12.1066 4.46428C9.78976 4.46428 7.91159 6.34246 7.91159 8.6593L7.91159 15.3407ZM11.6352 7.34118C11.6352 7.08085 11.8463 6.86981 12.1066 6.86981C12.3669 6.86981 12.578 7.08085 12.578 7.34118L12.578 8.67444C12.578 8.93477 12.3669 9.14581 12.1066 9.14581C11.8463 9.14581 11.6352 8.93477 11.6352 8.67444L11.6352 7.34118Z" fill="#162E55"/>
</svg>
