<svg width="32" height="32" viewBox="0 0 32 32" fill="none" xmlns="http://www.w3.org/2000/svg">
<path fill-rule="evenodd" clip-rule="evenodd" d="M5.42008 12.3697C4.85997 14.7575 4.85997 17.2425 5.42008 19.6303C6.22894 23.0786 8.92139 25.7711 12.3697 26.5799C14.7575 27.14 17.2425 27.14 19.6303 26.5799C23.0786 25.7711 25.7711 23.0786 26.5799 19.6303C27.14 17.2425 27.14 14.7575 26.5799 12.3697C25.7711 8.9214 23.0786 6.22894 19.6303 5.42007C17.2425 4.85997 14.7575 4.85998 12.3697 5.42008C8.9214 6.22894 6.22894 8.92139 5.42008 12.3697ZM15.2544 19.3493C15.0201 19.5836 14.6402 19.5836 14.4058 19.3493L11.4808 16.4243C11.3683 16.3117 11.3051 16.1591 11.3051 16C11.3051 15.8409 11.3683 15.6882 11.4808 15.5757L14.4058 12.6507C14.6402 12.4164 15.0201 12.4164 15.2544 12.6507C15.4887 12.885 15.4887 13.2649 15.2544 13.4992L13.3536 15.4L20.0952 15.4C20.4266 15.4 20.6952 15.6686 20.6952 16C20.6952 16.3314 20.4266 16.6 20.0952 16.6H13.3536L15.2544 18.5008C15.4887 18.7351 15.4887 19.115 15.2544 19.3493Z" fill="#162E55"/>
</svg>
