<svg width="80" height="80" viewBox="0 0 80 80" fill="none" xmlns="http://www.w3.org/2000/svg">
<path d="M40.0001 69.998C41.8411 69.998 43.3335 68.5056 43.3335 66.6647C43.3335 64.8237 41.8411 63.3313 40.0001 63.3313C38.1591 63.3313 36.6667 64.8237 36.6667 66.6647C36.6667 68.5056 38.1591 69.998 40.0001 69.998Z" fill="#162E55"/>
<path fill-rule="evenodd" clip-rule="evenodd" d="M30.0002 0H50.0002C54.4188 0.00529286 58.655 1.76294 61.7794 4.8874C64.9039 8.01186 66.6615 12.248 66.6668 16.6667V59.4744L60.0002 52.8078V16.6667C60.0002 14.0145 58.9466 11.471 57.0712 9.5956C55.1959 7.72024 52.6523 6.66667 50.0002 6.66667H30.0002C27.348 6.66667 24.8045 7.72024 22.9291 9.5956C21.8557 10.669 21.0515 11.9613 20.56 13.3676L15.5568 8.36446C16.282 7.10408 17.1749 5.93344 18.2209 4.8874C21.3454 1.76294 25.5815 0.00529286 30.0002 0ZM13.3335 24.5259V63.3333C13.3388 67.752 15.0964 71.9881 18.2209 75.1126C21.3454 78.2371 25.5815 79.9947 30.0002 80H50.0002C54.4188 79.9947 58.655 78.2371 61.7794 75.1126C62.1382 74.7538 62.479 74.3803 62.8012 73.9936L58.0602 69.2526C57.762 69.6586 57.4318 70.0438 57.0712 70.4044C55.1959 72.2798 52.6523 73.3333 50.0002 73.3333H30.0002C27.348 73.3333 24.8045 72.2798 22.9291 70.4044C21.0537 68.529 20.0002 65.9855 20.0002 63.3333V60H48.8076L42.1409 53.3333H20.0002V31.1925L13.3335 24.5259Z" fill="#162E55"/>
<path fill-rule="evenodd" clip-rule="evenodd" d="M4.17157 6.17157C5.73367 4.60948 8.26633 4.60948 9.82843 6.17157L75.3284 71.6716C76.8905 73.2337 76.8905 75.7663 75.3284 77.3284C73.7663 78.8905 71.2337 78.8905 69.6716 77.3284L4.17157 11.8284C2.60948 10.2663 2.60948 7.73367 4.17157 6.17157Z" fill="#162E55"/>
</svg>
