<svg width="40" height="40" viewBox="0 0 40 40" fill="none" xmlns="http://www.w3.org/2000/svg">
<path fill-rule="evenodd" clip-rule="evenodd" d="M25.3003 4.27684C21.697 3.5679 17.9822 3.57452 14.3817 4.29626L13.2915 4.51479C7.7069 5.63424 3.75 10.3804 3.75 15.8295C3.75 16.5199 3.19036 17.0795 2.5 17.0795C1.80964 17.0795 1.25 16.5199 1.25 15.8295C1.25 9.13468 6.1017 3.40627 12.8001 2.06356L13.8903 1.84502C17.8123 1.05885 21.858 1.05165 25.7829 1.82386L27.1876 2.10023C33.8873 3.41836 38.75 9.13795 38.75 15.8295C38.75 16.5199 38.1904 17.0795 37.5 17.0795C36.8096 17.0795 36.25 16.5199 36.25 15.8295C36.25 10.3874 32.2871 5.65146 26.705 4.5532L25.3003 4.27684ZM37.5 22.9205C38.1904 22.9205 38.75 23.4801 38.75 24.1705C38.75 30.8653 33.8983 36.5937 27.1999 37.9364L26.1097 38.155C22.1877 38.9412 18.142 38.9483 14.2171 38.1761L12.8124 37.8998C6.11273 36.5816 1.25 30.8621 1.25 24.1705C1.25 23.4801 1.80964 22.9205 2.5 22.9205C3.19036 22.9205 3.75 23.4801 3.75 24.1705C3.75 29.6126 7.7129 34.3485 13.295 35.4468L14.6997 35.7232C18.303 36.4321 22.0178 36.4255 25.6183 35.7037L26.7085 35.4852C32.2931 34.3658 36.25 29.6196 36.25 24.1705C36.25 23.4801 36.8096 22.9205 37.5 22.9205Z" fill="white"/>
<path d="M23.2812 23.6457C22.7752 23.6463 22.2808 23.7973 21.8607 24.0795C21.4407 24.3618 21.1141 24.7625 20.9224 25.2309C20.3191 25.0617 19.6809 25.0617 19.0776 25.2309C18.8448 24.6665 18.4171 24.2045 17.8724 23.929C17.3277 23.6534 16.7021 23.5826 16.1095 23.7295C15.517 23.8763 14.9969 24.231 14.6438 24.7291C14.2908 25.2271 14.1284 25.8354 14.1861 26.4431C14.2438 27.0508 14.5178 27.6176 14.9582 28.0404C15.3986 28.4631 15.9762 28.7136 16.5858 28.7463C17.1954 28.7791 17.7965 28.5918 18.2796 28.2187C18.7628 27.8455 19.0959 27.3113 19.2183 26.7132C19.4695 26.6226 19.7332 26.5717 20 26.5623C20.2668 26.5716 20.5306 26.6225 20.7817 26.7132C20.8792 27.186 21.1087 27.6213 21.4437 27.9688C21.7786 28.3163 22.2053 28.5617 22.6741 28.6765C23.1429 28.7913 23.6347 28.7708 24.0923 28.6174C24.5499 28.464 24.9547 28.184 25.2596 27.8098C25.5645 27.4356 25.757 26.9827 25.8148 26.5035C25.8727 26.0243 25.7934 25.5386 25.5863 25.1026C25.3792 24.6666 25.0527 24.2983 24.6447 24.0405C24.2367 23.7826 23.7639 23.6457 23.2812 23.6457ZM16.7188 27.2915C16.5024 27.2915 16.291 27.2273 16.1111 27.1071C15.9312 26.987 15.791 26.8161 15.7083 26.6163C15.6255 26.4164 15.6038 26.1965 15.646 25.9844C15.6882 25.7722 15.7924 25.5773 15.9454 25.4243C16.0983 25.2714 16.2932 25.1672 16.5054 25.125C16.7175 25.0828 16.9375 25.1045 17.1373 25.1872C17.3372 25.27 17.508 25.4102 17.6282 25.5901C17.7484 25.7699 17.8125 25.9814 17.8125 26.1977C17.8125 26.4878 17.6973 26.766 17.4921 26.9711C17.287 27.1762 17.0088 27.2915 16.7188 27.2915ZM23.2812 27.2915C23.0649 27.2915 22.8535 27.2273 22.6736 27.1071C22.4937 26.987 22.3535 26.8161 22.2708 26.6163C22.188 26.4164 22.1663 26.1965 22.2085 25.9844C22.2507 25.7722 22.3549 25.5773 22.5079 25.4243C22.6608 25.2714 22.8557 25.1672 23.0679 25.125C23.28 25.0828 23.5 25.1045 23.6998 25.1872C23.8997 25.27 24.0705 25.4102 24.1907 25.5901C24.3109 25.7699 24.375 25.9814 24.375 26.1977C24.375 26.4878 24.2598 26.766 24.0546 26.9711C23.8495 27.1762 23.5713 27.2915 23.2812 27.2915ZM25.8151 17.5754C25.6211 11.6962 22.4062 11.269 22.2641 11.2544C22.2386 11.2515 22.2131 11.25 22.1875 11.25C21.5551 11.2751 20.9434 11.4822 20.4258 11.8465C20.3011 11.9337 20.1526 11.9805 20.0004 11.9805C19.8482 11.9805 19.6996 11.9337 19.5749 11.8465C19.057 11.4823 18.4451 11.2752 17.8125 11.25C17.7881 11.2501 17.7638 11.2516 17.7396 11.2544C17.5981 11.269 14.3854 11.6962 14.1885 17.5754C13.2136 17.9014 11.25 18.7188 11.25 19.9999C11.25 22.6905 15.7665 22.9165 20 22.9165C24.2335 22.9165 28.75 22.6905 28.75 19.9999C28.75 18.7188 26.7864 17.9014 25.8151 17.5754ZM17.8526 12.712C18.1708 12.7462 18.4753 12.8595 18.7385 13.0415C19.1087 13.2996 19.5491 13.4379 20.0004 13.4379C20.4516 13.4379 20.892 13.2996 21.2622 13.0415C21.5236 12.8608 21.8257 12.7475 22.1416 12.712C22.466 12.7893 24.2627 13.4149 24.3699 17.7125C22.9979 18.3261 21.5014 18.61 20 18.5416C18.4987 18.61 17.0022 18.3263 15.6301 17.7133C15.738 13.3791 17.5631 12.7812 17.8526 12.712ZM20 21.4582C13.9734 21.4582 12.7083 20.6649 12.6996 20.0597C13.2762 19.493 13.9977 19.0959 14.785 18.912C16.4026 19.712 18.1974 20.0865 20 19.9999C21.8026 20.0865 23.5974 19.712 25.215 18.912C25.9839 19.1042 26.6959 19.4772 27.2917 19.9999C27.2917 20.6649 26.0266 21.4582 20 21.4582Z" fill="white"/>
</svg>
