<svg width="24" height="24" viewBox="0 0 24 24" fill="none" xmlns="http://www.w3.org/2000/svg">
<path fill-rule="evenodd" clip-rule="evenodd" d="M15.3054 5.36846C13.1206 4.96005 10.879 4.96005 8.69415 5.36846L8.5329 5.39846C7.8892 5.51821 7.3008 5.84108 6.85403 6.31971C6.40725 6.79834 6.12561 7.40754 6.0504 8.05796L6.03765 8.16071C5.84258 9.86329 5.77415 11.578 5.8329 13.2907C6.27915 13.638 7.1949 14.2162 8.94015 14.5507C9.1809 13.947 9.52215 13.4572 10.0059 13.1122C10.5594 12.7192 11.2336 12.5625 12.0001 12.5625C12.7666 12.5625 13.4409 12.7192 13.9944 13.1122C14.4789 13.4572 14.8194 13.9477 15.0609 14.5522C15.6226 14.449 16.1737 14.2943 16.7071 14.0902C17.4421 13.8022 17.8936 13.488 18.1651 13.2645C18.2287 11.499 18.1567 9.73136 17.9499 7.97696C17.8751 7.34946 17.6016 6.76232 17.1694 6.30127C16.7373 5.84021 16.169 5.5294 15.5476 5.41421L15.3054 5.36846ZM18.0856 14.6782C17.7746 14.855 17.451 15.0086 17.1174 15.138C15.9939 15.5775 14.3626 15.9375 12.0001 15.9375C8.8344 15.9375 6.9774 15.282 5.90865 14.6842C5.94315 15.1395 5.9859 15.5947 6.03765 16.0492C6.11453 16.7113 6.41165 17.3283 6.88131 17.8012C7.35096 18.2741 7.9659 18.5755 8.6274 18.657L9.38865 18.7522C9.76215 18.7987 9.9414 18.8212 10.1199 18.8392C11.3701 18.9705 12.6301 18.9705 13.8804 18.8392C14.0589 18.8212 14.2374 18.7987 14.6109 18.7522L15.2904 18.6675C15.9743 18.5831 16.6099 18.2708 17.0946 17.781C17.5793 17.2911 17.8848 16.6522 17.9619 15.9675L17.9754 15.8527C18.0189 15.462 18.0556 15.0705 18.0856 14.6782ZM13.9044 14.7202C13.7439 14.4007 13.5556 14.1802 13.3419 14.0295C13.0381 13.8135 12.6181 13.6875 12.0001 13.6875C11.3821 13.6875 10.9621 13.8135 10.6576 14.0295C10.4454 14.181 10.2564 14.4 10.0959 14.7195C10.6621 14.7787 11.2944 14.8125 12.0001 14.8125C12.7081 14.8125 13.3404 14.7787 13.9051 14.7202H13.9044ZM8.4879 4.26296C10.8093 3.82901 13.191 3.82901 15.5124 4.26296L15.7546 4.30796C16.6117 4.46739 17.3953 4.89658 17.9911 5.5329C18.587 6.16921 18.9638 6.97931 19.0666 7.84496C19.3854 10.5457 19.3944 13.275 19.0929 15.9772L19.0801 16.0927C18.9749 17.0286 18.5574 17.9017 17.8952 18.5712C17.233 19.2408 16.3645 19.6679 15.4299 19.7835L14.7421 19.8697C14.3784 19.9147 14.1871 19.9387 13.9966 19.9582C12.6691 20.097 11.3304 20.097 10.0029 19.9582C9.8124 19.9387 9.6219 19.9147 9.2574 19.8697L8.4879 19.7737C7.57618 19.6609 6.7288 19.2451 6.08179 18.5929C5.43478 17.9407 5.02568 17.09 4.92015 16.1775C4.60995 13.4713 4.60995 10.7386 4.92015 8.03246L4.93215 7.92971C5.03479 7.04025 5.41983 6.20711 6.03077 5.55258C6.64171 4.89804 7.44637 4.45657 8.32665 4.29296L8.4879 4.26296ZM9.4269 5.94146C9.47508 5.99749 9.51176 6.06246 9.53482 6.13267C9.55789 6.20288 9.56689 6.27695 9.56132 6.35064C9.55575 6.42433 9.53571 6.4962 9.50235 6.56214C9.46899 6.62808 9.42296 6.68681 9.3669 6.73496C9.30901 6.785 9.26181 6.84623 9.22815 6.91496C9.20473 6.95933 9.19093 7.00814 9.18765 7.05821C9.18765 7.1632 9.26415 7.39046 9.76965 7.62071C10.2564 7.84346 11.0124 7.99571 12.0001 7.99571C12.9879 7.99571 13.7439 7.84346 14.2306 7.62071C14.7361 7.39046 14.8126 7.1632 14.8126 7.05821C14.8126 7.03571 14.8021 6.94646 14.6334 6.80171C14.5202 6.70444 14.4503 6.56619 14.4391 6.41738C14.4278 6.26857 14.4761 6.12139 14.5734 6.00821C14.6707 5.89502 14.8089 5.82512 14.9577 5.81387C15.1065 5.80261 15.2537 5.85094 15.3669 5.94821C15.6789 6.21671 15.9376 6.59096 15.9376 7.05821C15.9376 7.81871 15.3624 8.34146 14.6979 8.64446C14.0154 8.95646 13.0831 9.12071 12.0001 9.12071C10.9171 9.12071 9.98565 8.95571 9.3024 8.64446C8.6379 8.34146 8.06265 7.81946 8.06265 7.05821C8.06265 6.63145 8.28315 6.18296 8.6334 5.88221C8.68943 5.83402 8.75441 5.79735 8.82462 5.77428C8.89482 5.75122 8.96889 5.74221 9.04258 5.74779C9.11627 5.75336 9.18814 5.7734 9.25408 5.80676C9.32003 5.84012 9.37875 5.88614 9.4269 5.94221V5.94146Z" fill="#162E55"/>
</svg>
