<svg width="40" height="40" viewBox="0 0 40 40" fill="none" xmlns="http://www.w3.org/2000/svg">
<path fill-rule="evenodd" clip-rule="evenodd" d="M10.6618 4.83733C10.6618 4.67429 12.6466 3.7086 13.8699 3.28218C14.2957 3.12542 14.7035 3 14.7754 3C14.8894 3 14.9253 3.10033 15.1232 3.85909C15.2432 4.3294 15.3511 4.72446 15.3571 4.73073C15.3631 4.737 15.573 4.69311 15.8188 4.62413C16.9702 4.32313 17.8757 4.2228 19.4768 4.2228C21.0958 4.2228 21.7195 4.29178 23.0028 4.59277C23.5425 4.71819 23.6084 4.72446 23.6324 4.63667C23.639 4.60546 23.6732 4.47263 23.7206 4.28801L23.7208 4.28724C23.7591 4.13813 23.8061 3.95533 23.8543 3.76503C24.0102 3.14423 24.0702 3 24.1601 3C24.304 3 25.5633 3.43895 26.1989 3.7086C26.7206 3.93434 27.9619 4.56769 28.2078 4.737C28.2385 4.75741 28.262 4.77307 28.2746 4.79502C28.3161 4.86748 28.238 5.00845 27.902 5.61491L27.4642 6.40502L28.0699 6.81262C29.2272 7.57766 30.4385 8.64996 31.326 9.69717C31.7878 10.2365 32.5014 11.1833 32.7532 11.6035L32.8612 11.7728L31.8178 12.4877C31.5376 12.6789 31.2748 12.858 31.0758 12.9936L31.0736 12.9951L31.0674 12.9993L31.0661 13.0002C30.8659 13.1366 30.7324 13.2276 30.7144 13.2402C30.6724 13.2652 30.4625 13.0207 30.1807 12.6193C29.611 11.8104 28.5736 10.6754 27.866 10.0797C27.2184 9.5404 26.1929 8.82554 26.127 8.86316C26.103 8.88197 25.8991 9.22687 25.6772 9.63447C25.5175 9.93134 25.371 10.1939 25.3031 10.3155L25.3029 10.3158L25.3029 10.3158C25.2791 10.3584 25.265 10.3837 25.2635 10.387C25.2515 10.3995 24.9157 10.2365 24.5079 10.0358C24.1001 9.82886 23.4945 9.56549 23.1647 9.45888C22.8349 9.34601 22.547 9.23314 22.517 9.20805C22.493 9.18924 22.571 8.78164 22.6969 8.31134C22.8169 7.84103 22.9068 7.4397 22.8888 7.42716C22.8528 7.38953 21.7255 7.15124 21.1558 7.06345C20.4062 6.95058 18.3254 6.96939 17.5878 7.10108C16.5924 7.27039 16.0587 7.40207 16.0587 7.47732C16.0587 7.51495 16.1546 7.91001 16.2686 8.34896C16.3825 8.78791 16.4785 9.17043 16.4785 9.19551C16.4785 9.22687 16.3345 9.2833 16.1666 9.33347C15.7409 9.44007 14.6435 9.90411 14.1338 10.1863C13.9059 10.3117 13.708 10.4058 13.696 10.3932C13.6937 10.3883 13.6667 10.3404 13.6232 10.2633C13.5553 10.1429 13.4472 9.9513 13.3302 9.74107C13.1444 9.39618 12.9465 9.05128 12.8985 8.96976L12.8145 8.82554L12.5927 8.96349C11.3274 9.75361 9.7143 11.2899 8.80282 12.5755L8.3051 13.2778L8.07723 13.121C6.76997 12.2619 6.10435 11.7665 6.14033 11.6975C6.15532 11.6787 6.20779 11.6004 6.28124 11.4906L6.28124 11.4906L6.2813 11.4905L6.28138 11.4904L6.28147 11.4903C6.3549 11.3806 6.44925 11.2396 6.5481 11.0956C7.68745 9.40872 9.30653 7.83476 11.0635 6.68721L11.4893 6.41129L11.0755 5.6588C10.8477 5.2512 10.6618 4.88123 10.6618 4.83733ZM17.4442 9.23074C17.4442 9.22456 17.5692 9.19985 17.727 9.18749C18.115 9.14423 20.6535 9.17513 20.6996 9.21838C20.7193 9.23692 20.6864 9.65092 20.6141 10.1329C20.5286 10.7446 20.5088 11.0165 20.5615 11.0289C20.595 11.0394 20.8043 11.0811 21.0561 11.1314L21.1928 11.1586C23.2249 11.5294 25.1255 12.4871 26.6447 13.9083C29.1766 16.2688 30.2683 19.6673 29.5712 22.9979C29.512 23.2821 29.4462 23.5293 29.4199 23.554C29.387 23.5911 26.7301 22.9546 26.6578 22.8866C26.6447 22.8743 26.6841 22.5653 26.7499 22.2008C26.8814 21.4407 26.8551 20.0566 26.6907 19.4634C26.4145 18.4191 26.0594 17.6467 25.5069 16.8867C24.4416 15.4037 22.7711 14.3224 20.91 13.9022L20.7744 13.8718C20.4111 13.7899 20.2416 13.7517 20.1518 13.8193C20.0734 13.8784 20.0556 14.0181 20.0224 14.2799L20.009 14.3841L19.9301 14.9835L19.0818 14.9897C18.6148 14.9897 18.2334 14.9773 18.2334 14.9526C18.2334 14.9341 18.0558 13.6426 17.8388 12.0855C17.6218 10.5284 17.4442 9.2431 17.4442 9.23074ZM16.1088 11.3964C12.531 12.5431 9.90648 15.437 9.23923 18.9672C9.08672 19.7837 9.0613 21.2546 9.18204 21.9991C9.28371 22.6115 9.53791 23.5661 9.69678 23.9564C9.76668 24.1185 9.82387 24.2926 9.82387 24.3346C9.82387 24.3766 9.49342 24.5327 9.08036 24.6948C9.0004 24.725 8.92708 24.7525 8.85993 24.7777L8.8593 24.7779L8.85834 24.7783C8.38831 24.9544 8.22161 25.0168 8.19742 25.1145C8.18412 25.1683 8.21388 25.2326 8.25998 25.3324C8.27009 25.3542 8.28097 25.3778 8.29237 25.4033C8.50207 25.8656 9.09943 26.8382 9.43623 27.2825L9.7349 27.6667L12.048 25.9857C13.3254 25.0611 14.393 24.2806 14.4184 24.2566C14.4502 24.2265 14.3739 24.0524 14.2468 23.8663C14.1261 23.6862 13.9481 23.398 13.8592 23.2299C13.7702 23.0678 13.6685 22.9297 13.6367 22.9297C13.5986 22.9297 13.3889 23.0018 13.1728 23.0858L13.0557 23.1331L13.0557 23.1331L13.0556 23.1331C12.6716 23.2882 12.5483 23.338 12.4838 23.2965C12.4533 23.2769 12.436 23.2368 12.4105 23.1778L12.4105 23.1777C12.4046 23.1641 12.3982 23.1495 12.3912 23.1338C12.3404 23.0198 12.2196 22.6595 12.1243 22.3413C11.9654 21.801 11.9527 21.6749 11.9527 20.6483C11.9527 19.6816 11.9718 19.4715 12.1052 18.9972C12.4865 17.6043 13.1284 16.5477 14.1833 15.569C14.9649 14.8366 15.9054 14.2902 17.0048 13.924C17.2336 13.8459 17.4306 13.7739 17.4433 13.7679C17.456 13.7559 17.3416 13.3236 17.1954 12.8013C16.8141 11.4324 16.7442 11.2223 16.6998 11.2223C16.6743 11.2223 16.4138 11.3003 16.1088 11.3964ZM2.84371 20.2448C2.84371 18.2586 3.52588 15.4535 4.44774 13.6262L4.62596 13.2778L5.80594 13.8829C6.48196 14.2312 6.98591 14.5246 6.97977 14.5673C6.97362 14.6101 6.85685 14.9096 6.7155 15.2274C6.05176 16.7185 5.70146 18.2036 5.5724 20.037L5.52938 20.6665H6.46353H7.39153V21.1065C7.39153 21.5893 7.51444 22.506 7.66808 23.2211L7.66811 23.2212C7.71727 23.4656 7.76027 23.6794 7.76027 23.6855C7.76027 23.6978 7.37309 23.8078 6.89987 23.9361C6.42665 24.0644 6.03947 24.1928 6.03947 24.2172C6.03947 24.3517 6.51269 25.6595 6.77081 26.2401C7.31163 27.444 8.23349 28.8252 9.16763 29.8336L9.53023 30.2308L10.1817 29.5953L10.827 28.9536L11.1527 29.2591C11.6505 29.7236 12.388 30.292 12.8612 30.5731C13.1009 30.7136 13.2791 30.842 13.2668 30.8664C13.2615 30.8744 13.2202 30.9458 13.1556 31.0575L13.1553 31.058C13.0711 31.2035 12.9475 31.4173 12.812 31.6487L12.3757 32.3943L12.7567 32.6021C14.1334 33.366 16.0693 33.9527 17.7409 34.1238L18.4722 34.1971L18.4292 35.12C18.4108 35.6211 18.3739 36.2322 18.3493 36.4767L18.3124 36.9167L18.0605 36.8923C16.9542 36.77 16.5486 36.7089 15.891 36.5806C14.5267 36.3117 13.2361 35.8594 11.8287 35.1689C11.3801 34.9488 11.0052 34.7777 10.9929 34.79C10.9836 34.7992 10.8865 34.9656 10.7548 35.1914L10.7546 35.1917L10.618 35.4255L10.1817 36.1711L10.0956 36.3117L9.58554 36C8.58994 35.3828 7.70496 34.7044 6.80769 33.8794L6.32218 33.4393L6.95518 32.8037L7.59434 32.1682L7.30549 31.8381C5.44949 29.748 4.4293 28.043 3.66723 25.7512C3.51359 25.2928 3.38453 24.9078 3.37224 24.8956C3.35995 24.8834 2.98506 24.975 2.54257 25.0912C2.10008 25.2134 1.70676 25.3112 1.68217 25.3112C1.49166 25.3112 1 22.1027 1 20.8621V20.6665H1.92185H2.84371V20.2448ZM33.1668 13.8896C32.5036 14.232 32.0061 14.5255 32.0123 14.5683C32.0184 14.6111 32.1351 14.9107 32.2763 15.2287C32.9335 16.7145 33.2897 18.2187 33.4186 20.0408L33.4616 20.6706H32.5281H31.6008V21.1108C31.6008 21.6122 31.4718 22.5722 31.3183 23.2325C31.263 23.4771 31.2323 23.685 31.2446 23.6972C31.2507 23.7033 31.6376 23.8195 32.0921 23.9418C32.5466 24.0641 32.9273 24.1742 32.9396 24.1864C32.9642 24.2108 32.7431 24.9385 32.5404 25.4704C32.2518 26.247 31.6806 27.3537 31.1832 28.0996C30.7349 28.7784 29.8935 29.8362 29.5803 30.1113L29.4452 30.2336L28.8065 29.5977L28.1739 28.9679L27.7501 29.3531C27.2711 29.7934 26.8596 30.1052 26.1902 30.5454L25.7173 30.8512L26.1657 31.6277L26.614 32.4042L26.2394 32.6182C25.3734 33.0952 23.9855 33.6149 22.8616 33.8717C22.2352 34.0185 21.1359 34.1835 20.792 34.1835H20.5279L20.5709 35.1435C20.5954 35.6755 20.6261 36.293 20.6446 36.5132L20.6814 36.9167L21.0008 36.8923C21.6763 36.8372 22.7572 36.6783 23.4328 36.5254C24.704 36.2502 26.4789 35.5899 27.5291 35.0029C27.7379 34.8867 27.9282 34.795 27.959 34.795C27.9835 34.795 28.1432 35.0335 28.3152 35.3331C28.481 35.6266 28.6775 35.969 28.7573 36.0913L28.8986 36.3236L29.3162 36.0729C30.2435 35.5104 31.2876 34.7155 32.1842 33.8901L32.6694 33.4498L32.0368 32.8139L31.3981 32.178L31.8526 31.6644C33.5415 29.775 34.7513 27.6655 35.4392 25.4215C35.5251 25.128 35.6111 24.8895 35.6234 24.8895C35.6418 24.8895 36.0103 24.9874 36.4463 25.1036C36.8824 25.2197 37.2631 25.3176 37.3 25.3176C37.3675 25.3176 37.5579 24.5655 37.7053 23.7278C37.8097 23.1102 37.908 22.2359 37.9633 21.3248L38.0001 20.6706H37.0728H36.1454V20.2487C36.1454 18.9279 35.7831 16.8796 35.2979 15.4733C34.9908 14.5805 34.4135 13.2537 34.346 13.2782C34.3431 13.281 34.2251 13.3419 34.0339 13.4405L34.0337 13.4406C33.8178 13.5519 33.5087 13.7113 33.1668 13.8896ZM24.751 23.5762C24.865 23.3837 25.036 23.0653 25.131 22.8728C25.2197 22.687 25.3273 22.5278 25.359 22.5278C25.416 22.5278 29.3174 24.1999 30.5081 24.7307C30.6728 24.8037 30.8058 24.9032 30.8058 24.9497C30.8058 25.1089 30.1154 26.4559 29.6974 27.1128L29.2794 27.7697L29.1084 27.6436C29.0503 27.599 28.9046 27.4824 28.7277 27.3408C28.6153 27.2509 28.4904 27.151 28.3674 27.0531L27.7974 26.5952L27.1324 27.3251C26.0937 28.473 25.283 29.0901 24.01 29.7271C22.5343 30.4636 21.6096 30.6892 19.9122 30.7356C18.8419 30.7688 18.5695 30.7489 17.8919 30.6295C15.9982 30.2911 14.0158 29.2958 12.7554 28.0484L12.3058 27.6038L13.2875 26.5753L14.2691 25.5535L14.5098 25.7658C16.0678 27.1659 17.7209 27.836 19.5956 27.836C21.6033 27.836 23.4906 27.0066 24.922 25.5004C25.2323 25.1753 25.4857 24.8701 25.4857 24.8236C25.4857 24.7772 25.2703 24.5648 25.0107 24.3525C24.751 24.1468 24.5357 23.961 24.5357 23.9477C24.5357 23.9345 24.6307 23.7686 24.751 23.5762Z" fill="#162E55"/>
</svg>
