<svg width="32" height="32" viewBox="0 0 32 32" fill="none" xmlns="http://www.w3.org/2000/svg">
<path fill-rule="evenodd" clip-rule="evenodd" d="M12.3697 5.42008C14.7575 4.85997 17.2425 4.85997 19.6303 5.42008C23.0786 6.22894 25.7711 8.9214 26.5799 12.3697C27.14 14.7575 27.14 17.2425 26.5799 19.6303C25.7711 23.0786 23.0786 25.7711 19.6303 26.5799C17.2425 27.14 14.7575 27.14 12.3697 26.5799C8.9214 25.7711 6.22894 23.0786 5.42008 19.6303C4.85997 17.2425 4.85997 14.7575 5.42008 12.3697C6.22894 8.92139 8.9214 6.22894 12.3697 5.42008ZM16 13.6599C16.6462 13.6599 17.17 13.1361 17.17 12.4899C17.17 11.8437 16.6462 11.3199 16 11.3199C15.3538 11.3199 14.83 11.8437 14.83 12.4899C14.83 13.1361 15.3538 13.6599 16 13.6599ZM16 14.5374C16.4846 14.5374 16.8775 14.9303 16.8775 15.415V20.095C16.8775 20.5797 16.4846 20.9725 16 20.9725C15.5153 20.9725 15.1225 20.5797 15.1225 20.095V15.415C15.1225 14.9303 15.5153 14.5374 16 14.5374Z" fill="#162E55"/>
</svg>
