<svg width="32" height="32" viewBox="0 0 32 32" fill="none" xmlns="http://www.w3.org/2000/svg">
<path d="M20.7674 11.2326C20.6184 11.0837 20.4163 11 20.2056 11C19.9949 11 19.7929 11.0837 19.6439 11.2326L16 14.8765L12.3561 11.2326C12.2071 11.0837 12.0051 11 11.7944 11C11.5837 11 11.3816 11.0837 11.2326 11.2326C11.0837 11.3816 11 11.5837 11 11.7944C11 12.0051 11.0837 12.2071 11.2326 12.3561L14.8765 16L11.2326 19.6439C11.0837 19.7929 11 19.9949 11 20.2056C11 20.4163 11.0837 20.6184 11.2326 20.7674C11.3816 20.9163 11.5837 21 11.7944 21C12.0051 21 12.2071 20.9163 12.3561 20.7674L16 17.1235L19.6439 20.7674C19.7929 20.9163 19.9949 21 20.2056 21C20.4163 21 20.6184 20.9163 20.7674 20.7674C20.9163 20.6184 21 20.4163 21 20.2056C21 19.9949 20.9163 19.7929 20.7674 19.6439L17.1235 16L20.7674 12.3561C20.9163 12.2071 21 12.0051 21 11.7944C21 11.5837 20.9163 11.3816 20.7674 11.2326Z" fill="white"/>
<path fill-rule="evenodd" clip-rule="evenodd" d="M20.2402 3.42147C17.3576 2.85432 14.3858 2.85961 11.5053 3.43701L10.6332 3.61184C6.16552 4.50739 3 8.30434 3 12.6636C3 13.2159 2.55228 13.6636 2 13.6636C1.44772 13.6636 1 13.2159 1 12.6636C1 7.30774 4.88136 2.72502 10.2401 1.65084L11.1123 1.47602C14.2498 0.847079 17.4864 0.841323 20.6263 1.45909L21.7501 1.68018C27.1098 2.73469 31 7.31036 31 12.6636C31 13.2159 30.5523 13.6636 30 13.6636C29.4477 13.6636 29 13.2159 29 12.6636C29 8.30992 25.8297 4.52117 21.364 3.64256L20.2402 3.42147ZM30 18.3364C30.5523 18.3364 31 18.7841 31 19.3364C31 24.6923 27.1186 29.275 21.7599 30.3492L20.8877 30.524C17.7502 31.1529 14.5136 31.1587 11.3737 30.5409L10.2499 30.3198C4.89018 29.2653 1 24.6896 1 19.3364C1 18.7841 1.44772 18.3364 2 18.3364C2.55228 18.3364 3 18.7841 3 19.3364C3 23.6901 6.17032 27.4788 10.636 28.3574L11.7598 28.5785C14.6424 29.1457 17.6142 29.1404 20.4947 28.563L21.3668 28.3882C25.8345 27.4926 29 23.6957 29 19.3364C29 18.7841 29.4477 18.3364 30 18.3364Z" fill="white"/>
</svg>
