<svg width="24" height="24" viewBox="0 0 24 24" fill="none" xmlns="http://www.w3.org/2000/svg">
<path d="M16 10.7289V18.25C16 19.0784 15.3284 19.75 14.5 19.75C13.6716 19.75 13 19.0784 13 18.25V7.25C13 4.97386 14.2239 3.75 16.5 3.75C17.9806 3.75 19.4336 4.4765 20.8536 5.89645C20.9473 5.99021 21 6.11739 21 6.25V8.25C21 8.38261 20.9473 8.50979 20.8536 8.60355C19.4336 10.0235 17.9806 10.75 16.5 10.75C16.3272 10.75 16.1606 10.7429 16 10.7289ZM14 9.95158V18.25C14 18.5261 14.2239 18.75 14.5 18.75C14.7761 18.75 15 18.5261 15 18.25V10.5257C14.6116 10.3924 14.2777 10.2004 14 9.95158ZM11 7.25V18.25C11 19.0784 10.3284 19.75 9.5 19.75C8.67157 19.75 8 19.0784 8 18.25V10.7289C7.83945 10.7429 7.67275 10.75 7.5 10.75C6.0194 10.75 4.56639 10.0235 3.14645 8.60355C3.05268 8.50979 3 8.38261 3 8.25V6.25C3 6.11739 3.05268 5.99021 3.14645 5.89645C4.56639 4.4765 6.0194 3.75 7.5 3.75C9.77614 3.75 11 4.97386 11 7.25ZM9 10.5257V18.25C9 18.5261 9.22386 18.75 9.5 18.75C9.77614 18.75 10 18.5261 10 18.25V9.95158C9.72234 10.2004 9.38838 10.3924 9 10.5257ZM4 8.0401C5.19538 9.18981 6.36042 9.75 7.5 9.75C9.22386 9.75 10 8.97386 10 7.25C10 5.52614 9.22386 4.75 7.5 4.75C6.36042 4.75 5.19538 5.31019 4 6.4599V8.0401ZM6.5 7.75C6.22386 7.75 6 7.52614 6 7.25C6 6.97386 6.22386 6.75 6.5 6.75H8.5C8.77614 6.75 9 6.97386 9 7.25C9 7.52614 8.77614 7.75 8.5 7.75H6.5ZM16.5 4.75C14.7761 4.75 14 5.52614 14 7.25C14 8.97386 14.7761 9.75 16.5 9.75C17.6396 9.75 18.8046 9.18981 20 8.0401V6.4599C18.8046 5.31019 17.6396 4.75 16.5 4.75ZM15.5 7.75C15.2239 7.75 15 7.52614 15 7.25C15 6.97386 15.2239 6.75 15.5 6.75H17.5C17.7761 6.75 18 6.97386 18 7.25C18 7.52614 17.7761 7.75 17.5 7.75H15.5Z" fill="#162E55"/>
</svg>
