<svg width="24" height="24" viewBox="0 0 24 24" fill="none" xmlns="http://www.w3.org/2000/svg">
<path d="M8.1 10.125H9.5625C9.83174 10.125 10.05 10.3433 10.05 10.6125C10.05 10.8817 9.83174 11.1 9.5625 11.1H8.1V12.5625C8.1 12.8317 7.88174 13.05 7.6125 13.05C7.34326 13.05 7.125 12.8317 7.125 12.5625V11.1H5.6625C5.39326 11.1 5.175 10.8817 5.175 10.6125C5.175 10.3433 5.39326 10.125 5.6625 10.125H7.125V8.6625C7.125 8.39326 7.34326 8.175 7.6125 8.175C7.88174 8.175 8.1 8.39326 8.1 8.6625V10.125ZM13.4625 8.175H14.4375C14.7067 8.175 14.925 8.39326 14.925 8.6625V9.6375C14.925 9.90674 14.7067 10.125 14.4375 10.125H13.4625C13.1933 10.125 12.975 9.90674 12.975 9.6375V8.6625C12.975 8.39326 13.1933 8.175 13.4625 8.175ZM16.3875 8.175H17.3625C17.6317 8.175 17.85 8.39326 17.85 8.6625V9.6375C17.85 9.90674 17.6317 10.125 17.3625 10.125H16.3875C16.1183 10.125 15.9 9.90674 15.9 9.6375V8.6625C15.9 8.39326 16.1183 8.175 16.3875 8.175ZM14.4375 11.1H15.4125C15.6817 11.1 15.9 11.3183 15.9 11.5875V12.5625C15.9 12.8317 15.6817 13.05 15.4125 13.05H14.4375C14.1683 13.05 13.95 12.8317 13.95 12.5625V11.5875C13.95 11.3183 14.1683 11.1 14.4375 11.1ZM17.3625 11.1H18.3375C18.6067 11.1 18.825 11.3183 18.825 11.5875V12.5625C18.825 12.8317 18.6067 13.05 18.3375 13.05H17.3625C17.0933 13.05 16.875 12.8317 16.875 12.5625V11.5875C16.875 11.3183 17.0933 11.1 17.3625 11.1ZM12 7.2C10.6828 7.2 9.86279 7.02736 9.05982 6.67048C8.95672 6.62466 8.62157 6.46668 8.55201 6.43576C8.21416 6.28561 7.9687 6.225 7.6125 6.225C5.65122 6.225 3.225 9.50753 3.225 14.5125C3.225 16.9351 3.62128 17.8942 4.27852 17.9726C4.86367 18.0423 5.27887 17.8487 7.58571 16.5522C8.88613 15.8213 9.75502 15.4159 10.6739 15.1795C11.1323 15.0615 11.5728 15 12 15C12.4272 15 12.8677 15.0615 13.3261 15.1795C14.245 15.4159 15.1139 15.8213 16.4143 16.5522C18.7211 17.8487 19.1363 18.0423 19.7215 17.9726C20.3787 17.8942 20.775 16.9351 20.775 14.5125C20.775 9.50753 18.3488 6.225 16.3875 6.225C16.0313 6.225 15.7858 6.28561 15.448 6.43576C15.3784 6.46668 15.0433 6.62466 14.9402 6.67048C14.1372 7.02736 13.3172 7.2 12 7.2ZM12 6.225C13.1813 6.225 13.8664 6.08077 14.5442 5.77952C14.6341 5.73957 14.9692 5.58159 15.052 5.54479C15.5063 5.34286 15.8825 5.25 16.3875 5.25C18.9621 5.25 21.75 9.02188 21.75 14.5125C21.75 17.3785 21.1702 18.7818 19.8369 18.9407C18.9291 19.0489 18.5625 18.8779 15.9366 17.4021C14.7056 16.7103 13.8975 16.3332 13.0832 16.1237C12.7005 16.0252 12.3407 15.975 12 15.975C11.6593 15.975 11.2995 16.0252 10.9168 16.1237C10.1025 16.3332 9.29441 16.7103 8.06341 17.4021C5.43753 18.8779 5.07092 19.0489 4.16313 18.9407C2.82981 18.7818 2.25 17.3785 2.25 14.5125C2.25 9.02188 5.03791 5.25 7.6125 5.25C8.11755 5.25 8.49365 5.34286 8.94799 5.54479C9.03078 5.58159 9.36593 5.73957 9.45581 5.77952C10.1336 6.08077 10.8187 6.225 12 6.225Z" fill="#162E55"/>
</svg>
