<svg width="40" height="40" viewBox="0 0 40 40" fill="none" xmlns="http://www.w3.org/2000/svg">
<path fill-rule="evenodd" clip-rule="evenodd" d="M10.2213 6.24352C10.2781 6.15842 10.401 6.07333 10.4766 6.04496C10.9116 5.89368 11.0345 6.0166 12.604 8.14396C13.3604 9.184 14.0411 10.0728 14.1073 10.1295C14.1924 10.2051 14.6179 10.2335 15.2986 10.2146L16.3671 10.1862L17.842 8.18178C19.4588 5.98823 19.6574 5.80859 20.1018 6.13951C20.5934 6.50826 20.5272 6.6879 19.1752 8.5127L17.9366 10.1862L25.6707 10.2335L33.4048 10.2808L33.9438 10.5455C34.5583 10.8481 35.0878 11.387 35.3809 12.0205L35.5795 12.4554V22.6195V32.7835L35.3809 33.2184C35.0973 33.8236 34.5489 34.4003 33.9816 34.7029L33.4994 34.9581L19.9316 34.9865C6.89152 35.0108 5.87219 35.0558 5.30102 34.5718C5.20419 34.4898 5.12023 34.3925 4.99277 34.2774C4.72803 34.041 4.39711 33.625 4.25528 33.3603L4 32.8781V22.6195V12.3609L4.25528 11.8881C4.55784 11.3208 5.07786 10.8102 5.65461 10.5077C6.06851 10.2819 6.14549 10.2808 9.2561 10.2342L9.30422 10.2335L12.5378 10.1862L11.3181 8.54107C10.089 6.86754 9.94715 6.58389 10.2213 6.24352ZM34.2842 12.6729C34.1707 12.2947 33.7452 11.8314 33.3103 11.6423C32.951 11.4721 32.3364 11.4626 19.7803 11.4626H6.63793L6.16518 11.699C5.8248 11.8692 5.62625 12.0488 5.45606 12.3325L5.22914 12.7391V22.6667V32.5944L5.45606 32.9348C5.58843 33.1239 5.84371 33.3792 6.02336 33.5021L6.35428 33.729L19.5912 33.7574C31.5139 33.7763 32.8754 33.7668 33.2347 33.6345C33.679 33.4643 34.1707 32.9632 34.2747 32.566C34.3692 32.2351 34.3692 13.0132 34.2842 12.6729ZM8.05619 14.961C8.47221 14.1762 8.94496 13.7791 9.72026 13.5333C9.85263 13.4955 14.0223 13.4576 18.9956 13.4576C27.6377 13.4495 28.5266 13.4274 29.0948 13.8433C29.1868 13.9106 29.2704 13.9894 29.3771 14.0817C29.604 14.2708 29.8876 14.649 30.0105 14.9042L30.2375 15.3864V22.6195C30.2375 29.6918 30.228 29.8619 30.0389 30.278C29.8025 30.798 29.3676 31.2707 28.8665 31.5355L28.4883 31.7435H19.0806H9.67299L9.24752 31.526C8.67077 31.2235 8.42494 30.9776 8.13183 30.4198L7.87655 29.947V22.6195C7.87655 15.6417 7.88601 15.273 8.05619 14.961ZM28.9043 15.4999C28.8476 15.3581 28.6679 15.1312 28.5167 15.0082L28.233 14.7719H19.0523H9.86209L9.6068 14.9893C9.47443 15.1028 9.3137 15.2919 9.25697 15.4054C9.18133 15.5472 9.15297 17.7502 9.15297 22.6667V29.7296L9.35152 30.0132C9.40291 30.0849 9.44161 30.1473 9.48952 30.2015C9.82066 30.576 10.5918 30.5616 19.0334 30.5616C27.4422 30.5616 28.1776 30.5762 28.5631 30.2161C28.6171 30.1656 28.6642 30.1078 28.7247 30.0416L28.9611 29.7863L28.9894 22.7802C29.0083 17.6651 28.98 15.6985 28.9043 15.4999Z" fill="#162E55"/>
</svg>
