<svg width="40" height="40" viewBox="0 0 40 40" fill="none" xmlns="http://www.w3.org/2000/svg">
<path fill-rule="evenodd" clip-rule="evenodd" d="M14.3945 2.70649C18.4103 1.7645 22.5897 1.7645 26.6055 2.70649C32.4049 4.06685 36.9332 8.59508 38.2935 14.3945C39.2355 18.4103 39.2355 22.5897 38.2935 26.6055C36.9332 32.4049 32.4049 36.9332 26.6055 38.2935C22.5897 39.2355 18.4103 39.2355 14.3945 38.2935C8.59508 36.9332 4.06685 32.4049 2.70649 26.6055C1.7645 22.5897 1.7645 18.4103 2.70649 14.3945C4.06685 8.59507 8.59507 4.06685 14.3945 2.70649ZM26.7744 17.37C27.2193 16.8933 27.1935 16.1462 26.7169 15.7013C26.2402 15.2564 25.4931 15.2822 25.0482 15.7589L18.9948 22.2445L15.9235 19.1732C15.4624 18.7121 14.7148 18.7121 14.2538 19.1732C13.7927 19.6342 13.7927 20.3818 14.2538 20.8429L18.1893 24.7784C18.4157 25.0048 18.7243 25.1295 19.0445 25.124C19.3646 25.1185 19.6688 24.9832 19.8873 24.7491L26.7744 17.37Z" fill="white"/>
</svg>
