<svg width="40" height="40" viewBox="0 0 40 40" fill="none" xmlns="http://www.w3.org/2000/svg">
<path fill-rule="evenodd" clip-rule="evenodd" d="M19.4442 2.01406C15.8885 2.28768 12.9905 3.27141 10.1967 5.13463C9.10916 5.85777 8.47095 6.3985 7.36386 7.506C4.3682 10.5093 2.61639 14.1511 2.08238 18.4899C1.95864 19.4606 1.97818 21.7733 2.11494 22.7571C2.52521 25.7929 3.48252 28.3532 5.11711 30.8028C5.83998 31.8908 6.3805 32.5292 7.48759 33.6367C10.4312 36.5749 13.9869 38.3143 18.2394 38.8876C19.353 39.0374 21.6193 39.0374 22.7329 38.8876C25.7937 38.4707 28.2944 37.5391 30.7756 35.8843C31.8632 35.1612 32.5014 34.6204 33.6085 33.5129C36.806 30.3012 38.5969 26.3467 38.9551 21.7147C39.209 18.3857 38.3755 14.6201 36.7278 11.6429C35.7966 9.96858 34.9239 8.81547 33.4847 7.38222C30.5412 4.44407 26.9399 2.68508 22.7655 2.13784C21.9905 2.04012 20.0694 1.96846 19.4442 2.01406ZM21.9254 5.23887C24.9406 5.53203 27.7669 6.68514 30.1244 8.58094C30.6323 8.99137 31.8176 10.164 32.2865 10.7178C32.853 11.4018 33.7061 12.6852 34.1099 13.48C36.6692 18.4769 36.3371 24.3532 33.2438 28.9917C32.573 29.995 32.052 30.6139 31.1533 31.4868C30.2546 32.3663 29.955 32.6074 28.9652 33.2719C27.0375 34.5618 25.0383 35.3306 22.6678 35.6954C21.73 35.8452 19.4116 35.8648 18.5325 35.7345C15.9992 35.3501 13.9869 34.5944 11.9941 33.2654C11.0433 32.6269 10.6982 32.3403 9.78644 31.4543C4.04909 25.8841 3.58021 16.8938 8.70539 10.7048C9.14172 10.1771 10.3139 9.01091 10.861 8.56791C11.4145 8.11188 12.7691 7.23239 13.4594 6.88059C15.1656 6.00761 17.1063 5.4278 18.9558 5.23887C19.7633 5.16069 21.1113 5.15418 21.9254 5.23887ZM6.36717 21.496C6.70237 25.6172 8.68135 29.2933 11.9045 31.7634C13.7996 33.221 16.0429 34.1561 18.5118 34.5366C19.5239 34.685 21.4255 34.685 22.4762 34.5302C28.7161 33.6015 33.5508 28.7709 34.4597 22.5602C34.5177 22.1861 34.5822 21.4509 34.6015 20.935L34.6466 19.9869L34.4919 19.9547C34.4178 19.9375 34.1723 19.9154 33.9204 19.8926L33.8215 19.8837C33.5379 19.8644 33.2414 19.8321 33.1705 19.8128C33.0351 19.7741 33.0287 19.7999 33.0093 20.3545C32.9835 20.9865 32.8868 21.1736 32.5065 21.3348C32.3454 21.3993 32.3325 21.438 32.2551 22.0636C31.6298 27.3005 27.2529 31.6796 22.0121 32.3116C21.3868 32.389 21.3481 32.4019 21.2837 32.5631C21.2386 32.6599 21.1354 32.8082 21.0452 32.892C20.8905 33.0339 20.8453 33.0404 19.9429 33.0404C15.6175 33.021 11.3114 30.2543 9.26151 26.1718C8.39772 24.4498 7.97872 22.7924 7.97227 21.0639C7.97227 20.161 7.97872 20.1159 8.12053 19.9611C8.20433 19.8708 8.3526 19.7676 8.44929 19.7225C8.61044 19.658 8.62334 19.6193 8.70069 18.9937C9.32597 13.7568 13.6965 9.37772 18.9437 8.74568L18.9511 8.7448C19.5884 8.66829 19.5952 8.66747 19.6979 8.45546C19.8591 8.11365 20.1362 7.98466 20.7293 7.98466C21.2192 7.98466 21.2321 7.97821 21.1934 7.83633C21.1741 7.75893 21.1419 7.46226 21.1225 7.17849L21.1136 7.07944C21.0908 6.82742 21.0687 6.58189 21.0516 6.50776L21.0194 6.35298L20.0718 6.39812C18.9308 6.44972 18.0219 6.5787 17.0163 6.82378C13.9608 7.5848 11.1954 9.40997 9.24862 11.951C7.80467 13.8342 6.8184 16.1689 6.48964 18.5035C6.38651 19.2388 6.32204 20.8898 6.36717 21.496ZM22.8723 13.0012C22.8726 13.0011 22.8729 13.001 22.8732 13.0008L22.8723 13C22.8723 13.0004 22.8723 13.0008 22.8723 13.0012ZM22.8723 13.0012C17.952 14.9699 15 19.5806 15 22.8417C15 26.0638 17.583 28.6783 20.7915 28.7396C19.1881 28.7081 17.897 27.4042 17.897 25.7932C17.897 24.1634 19.3728 21.857 21.8332 20.8732C21.8332 22.6702 22.552 23.6651 23.144 24.4845C23.6867 25.2356 24.1228 25.8392 23.8009 26.7779C23.4196 27.8902 22.4885 28.7345 20.874 28.7438C20.8786 28.7438 20.8836 28.744 20.8887 28.7442C20.894 28.7444 20.8995 28.7447 20.9047 28.7447C24.1651 28.7447 26.0409 27.0459 26.8085 24.8085C27.4528 22.9317 26.5805 21.7247 25.4949 20.2226C24.3107 18.5841 22.8727 16.5944 22.8723 13.0012Z" fill="#162E55"/>
</svg>
