<svg width="40" height="40" viewBox="0 0 40 40" fill="none" xmlns="http://www.w3.org/2000/svg">
<path fill-rule="evenodd" clip-rule="evenodd" d="M20.2879 11.7095C20.083 11.5572 19.766 11.6831 19.766 11.9168V17.7593L24.2186 15.0809C24.3883 14.9788 24.4009 14.7657 24.2441 14.6492L20.2879 11.7095ZM17.8703 17.853V11.9168C17.8703 10.2813 20.0891 9.39993 21.5233 10.4657L25.4795 13.4054C26.5768 14.2208 26.4886 15.7127 25.301 16.4271L20.4004 19.375L25.301 22.3229C26.4886 23.0373 26.5768 24.5292 25.4795 25.3446L21.5233 28.2843C20.0891 29.3501 17.8703 28.4687 17.8703 26.8332V20.897L12.7392 23.9835C12.3094 24.2421 11.7187 24.1503 11.4198 23.7785C11.1209 23.4068 11.227 22.8959 11.6568 22.6373L17.0801 19.375L11.6568 16.1127C11.227 15.8541 11.1209 15.3432 11.4198 14.9715C11.7187 14.5997 12.3094 14.5079 12.7392 14.7665L17.8703 17.853ZM19.766 20.9907V26.8332C19.766 27.0669 20.083 27.1928 20.2879 27.0405L24.2441 24.1008C24.4009 23.9843 24.3883 23.7712 24.2186 23.6691L19.766 20.9907Z" fill="white"/>
<path fill-rule="evenodd" clip-rule="evenodd" d="M25.3003 4.27684C21.697 3.5679 17.9822 3.57452 14.3817 4.29626L13.2915 4.51479C7.7069 5.63424 3.75 10.3804 3.75 15.8295C3.75 16.5199 3.19036 17.0795 2.5 17.0795C1.80964 17.0795 1.25 16.5199 1.25 15.8295C1.25 9.13468 6.1017 3.40627 12.8001 2.06356L13.8903 1.84502C17.8123 1.05885 21.858 1.05165 25.7829 1.82386L27.1876 2.10023C33.8873 3.41836 38.75 9.13795 38.75 15.8295C38.75 16.5199 38.1904 17.0795 37.5 17.0795C36.8096 17.0795 36.25 16.5199 36.25 15.8295C36.25 10.3874 32.2871 5.65146 26.705 4.5532L25.3003 4.27684ZM37.5 22.9205C38.1904 22.9205 38.75 23.4801 38.75 24.1705C38.75 30.8653 33.8983 36.5937 27.1999 37.9364L26.1097 38.155C22.1877 38.9412 18.142 38.9483 14.2171 38.1761L12.8124 37.8998C6.11273 36.5816 1.25 30.8621 1.25 24.1705C1.25 23.4801 1.80964 22.9205 2.5 22.9205C3.19036 22.9205 3.75 23.4801 3.75 24.1705C3.75 29.6126 7.7129 34.3485 13.295 35.4468L14.6997 35.7232C18.303 36.4321 22.0178 36.4255 25.6183 35.7037L26.7085 35.4852C32.2931 34.3658 36.25 29.6196 36.25 24.1705C36.25 23.4801 36.8096 22.9205 37.5 22.9205Z" fill="white"/>
</svg>
