<svg width="40" height="40" viewBox="0 0 40 40" fill="none" xmlns="http://www.w3.org/2000/svg">
<path d="M19.9997 38C10.0747 38 2 29.9253 2 20.0003C2 10.0752 10.0747 2 19.9997 2C29.9253 2 38 10.0747 38 19.9997C38 29.9248 29.9253 38 19.9997 38ZM19.9997 3.65318C11.5377 3.65318 3.65319 11.5377 3.65319 19.9997C3.65319 28.4618 11.5377 36.3463 19.9997 36.3463C28.4618 36.3463 36.3468 28.4618 36.3468 19.9997C36.3468 11.5377 28.4618 3.65318 19.9997 3.65318ZM29.1479 24.8678H25.0052C24.2724 24.8678 23.6786 24.274 23.6786 23.5412V16.4588C23.6786 15.726 24.2724 15.1322 25.0052 15.1322H29.1479C29.8807 15.1322 30.4745 15.726 30.4745 16.4588V23.5412C30.4745 24.274 29.8807 24.8678 29.1479 24.8678ZM25.3318 23.2146H28.8213V16.7854H25.3318V23.2146ZM14.9937 24.8678H10.851C10.1182 24.8678 9.52443 24.274 9.52443 23.5412V16.4588C9.52443 15.726 10.1182 15.1322 10.851 15.1322H14.9937C15.7265 15.1322 16.3203 15.726 16.3203 16.4588V23.5412C16.3203 24.274 15.7265 24.8678 14.9937 24.8678ZM11.1781 23.2146H14.6676V16.7854H11.1781V23.2146Z" fill="#162E55"/>
</svg>
