<svg width="40" height="40" viewBox="0 0 40 40" fill="none" xmlns="http://www.w3.org/2000/svg">
<path fill-rule="evenodd" clip-rule="evenodd" d="M22.2816 9.0788C23.0464 9.00868 24.1079 8.91137 24.9472 8.83873C27.9459 8.55364 28.2943 8.55364 28.6956 8.90208C28.8751 9.0499 29.0757 9.29275 29.1285 9.44057C29.2341 9.7151 31.4408 33.6516 31.4408 34.5174C31.4408 35.1087 31.2297 35.5416 30.8073 35.7844C30.6067 35.9112 29.5614 36.0379 26.9428 36.2807C26.4195 36.3285 25.8519 36.3801 25.2782 36.4323C23.6991 36.5758 22.0741 36.7234 21.1989 36.8086C20.2268 36.9033 19.0235 37.0119 18.2341 37.0832C18.0546 37.0994 17.8965 37.1137 17.7673 37.1254C17.1154 37.1748 14.7722 37.3905 12.4065 37.6083C12.2435 37.6234 12.0805 37.6384 11.9178 37.6533C7.47265 38.0651 7.31427 38.0651 6.95527 37.8856C6.31119 37.5689 6.22672 37.2943 5.98387 34.7391C4.53734 19.0912 3.91437 11.8268 4.0094 11.584C4.15722 11.1933 4.4951 10.8554 4.87521 10.7393C5.05471 10.6759 6.55404 10.507 8.21175 10.3592C8.38073 10.3441 8.55717 10.3284 8.73911 10.3122C10.3421 10.1693 12.3722 9.98834 13.4911 9.88404C18.4009 9.43001 20.4598 9.23996 21.6741 9.13437C21.8383 9.11944 22.0458 9.10041 22.2816 9.0788ZM27.7875 13.474C27.608 11.3834 27.4919 10.961 26.9956 10.5915C26.7317 10.4014 25.9714 10.2747 25.6336 10.3592C25.5491 10.3803 24.356 10.4964 22.9939 10.6231C21.6318 10.7393 19.2033 10.961 17.609 11.1088C16.0146 11.2567 12.942 11.5312 10.7881 11.7212C7.94779 11.9852 6.77577 12.1225 6.54348 12.2492C6.12114 12.4709 5.88885 12.9144 5.88885 13.5162C5.88885 13.7802 6.19505 17.4124 6.57516 21.5725C6.95527 25.7432 7.29315 29.502 7.32482 29.9138C7.40929 30.843 7.63103 31.297 8.1484 31.561C8.53907 31.7616 8.56019 31.7616 11.0415 31.5399C13.1619 31.3409 16.4954 31.0393 19.9695 30.725C21.8409 30.5557 23.7531 30.3827 25.5385 30.22C28.4633 29.9561 28.6533 29.9033 28.9807 29.2698C29.1813 28.8896 29.1496 28.3406 28.7484 24.0854C28.3788 20.1154 27.9776 15.723 27.7875 13.474ZM10.1546 5.37544C10.6297 2.86248 10.7564 2.47181 11.1999 2.17616C11.6328 1.89108 12.2346 1.93332 14.8637 2.44013C15.3474 2.53255 15.7544 2.61053 16.1209 2.68076C17.555 2.95552 18.3692 3.11151 20.7238 3.54879C21.5291 3.70074 22.2074 3.82809 22.8829 3.95493C24.085 4.18065 25.2786 4.40476 27.1646 4.76303C27.8412 4.89461 29.4213 5.19348 30.8624 5.46607L31.3881 5.56549C32.9613 5.85058 34.4184 6.13566 34.6296 6.19901C35.1575 6.33628 35.5693 6.87477 35.5799 7.42382C35.5799 7.78282 35.1997 9.92622 34.4501 13.7907C34.4185 13.9581 34.3792 14.1657 34.3348 14.3996C34.1862 15.1835 33.9816 16.2628 33.8271 17.1167C32.37 24.9301 32.2961 25.2574 32.1483 25.004C31.9899 24.7612 31.6309 20.1576 31.7048 19.2812C31.7365 18.7955 32.1061 16.6521 32.5073 14.5298C33.5315 9.10265 33.5948 8.71198 33.5104 8.36354C33.3942 7.8884 32.9191 7.49773 32.3383 7.37103C31.821 7.25488 25.433 6.04064 23.3635 5.66052C22.0014 5.40712 18.5593 4.76303 16.8699 4.43572C14.378 3.96058 13.4489 3.83387 13.0477 3.90778C12.393 4.02393 12.1818 4.42516 11.8228 6.1779C11.6434 7.01203 11.4533 7.74058 11.3794 7.81449C11.316 7.87784 11.031 7.93064 10.7459 7.93064C10.3552 7.93064 10.1651 7.87784 9.9962 7.69835L9.76391 7.47661L10.1546 5.37544Z" fill="#162E55"/>
</svg>
