<svg width="40" height="40" viewBox="0 0 40 40" fill="none" xmlns="http://www.w3.org/2000/svg">
<path fill-rule="evenodd" clip-rule="evenodd" d="M26.9643 2.85714C26.9643 1.96954 27.6838 1.25 28.5714 1.25C34.1929 1.25 38.75 5.8071 38.75 11.4286C38.75 12.3162 38.0305 13.0357 37.1429 13.0357C36.2553 13.0357 35.5357 12.3162 35.5357 11.4286C35.5357 7.5823 32.4177 4.46429 28.5714 4.46429C27.6838 4.46429 26.9643 3.74474 26.9643 2.85714Z" fill="white"/>
<path fill-rule="evenodd" clip-rule="evenodd" d="M1.25 11.4286C1.25 5.8071 5.8071 1.25 11.4286 1.25C12.3162 1.25 13.0357 1.96954 13.0357 2.85714C13.0357 3.74474 12.3162 4.46429 11.4286 4.46429C7.5823 4.46429 4.46429 7.5823 4.46429 11.4286C4.46429 12.3162 3.74474 13.0357 2.85714 13.0357C1.96954 13.0357 1.25 12.3162 1.25 11.4286Z" fill="white"/>
<path fill-rule="evenodd" clip-rule="evenodd" d="M27.1799 20.988C22.6089 18.9564 17.3911 18.9564 12.82 20.988L11.0099 21.7925C10.1988 22.153 9.249 21.7877 8.88852 20.9766C8.52803 20.1655 8.89332 19.2157 9.70442 18.8552L11.5146 18.0507C16.9168 15.6498 23.0832 15.6498 28.4854 18.0507L30.2956 18.8552C31.1067 19.2157 31.472 20.1655 31.1115 20.9766C30.751 21.7877 29.8012 22.153 28.9901 21.7925L27.1799 20.988Z" fill="white"/>
<path fill-rule="evenodd" clip-rule="evenodd" d="M37.1428 22.4782C38.0304 22.4782 38.75 23.1978 38.75 24.0854C38.75 30.8343 33.8603 36.5961 27.1282 37.9456L26.0602 38.1597C22.1691 38.9397 18.1553 38.9468 14.2613 38.1807L12.8852 37.9099C6.15122 36.585 1.25 30.8316 1.25 24.0854C1.25 23.1978 1.96954 22.4782 2.85714 22.4782C3.74474 22.4782 4.46429 23.1978 4.46429 24.0854C4.46429 29.2252 8.20858 33.7139 13.5057 34.7561L14.8818 35.0268C18.3623 35.7116 21.9506 35.7052 25.4284 35.0081L26.4964 34.794C31.7965 33.7316 35.5357 29.2326 35.5357 24.0854C35.5357 23.1978 36.2552 22.4782 37.1428 22.4782Z" fill="white"/>
</svg>
