<svg width="24" height="24" viewBox="0 0 24 24" fill="none" xmlns="http://www.w3.org/2000/svg">
<path d="M9.9375 13.7812C9.9375 13.2342 10.1548 12.7096 10.5416 12.3228C10.9284 11.936 11.453 11.7187 12 11.7187C12.547 11.7187 13.0716 11.936 13.4584 12.3228C13.8452 12.7096 14.0625 13.2342 14.0625 13.7812C14.0625 14.3283 13.8452 14.8529 13.4584 15.2397C13.0716 15.6264 12.547 15.8437 12 15.8437C11.453 15.8437 10.9284 15.6264 10.5416 15.2397C10.1548 14.8529 9.9375 14.3283 9.9375 13.7812ZM12 9.65625C10.906 9.65625 9.85677 10.0908 9.08318 10.8644C8.3096 11.638 7.875 12.6872 7.875 13.7812C7.875 14.8753 8.3096 15.9245 9.08318 16.6981C9.85677 17.4717 10.906 17.9062 12 17.9062C13.094 17.9062 14.1432 17.4717 14.9168 16.6981C15.6904 15.9245 16.125 14.8753 16.125 13.7812C16.125 12.6872 15.6904 11.638 14.9168 10.8644C14.1432 10.0908 13.094 9.65625 12 9.65625ZM8.90625 13.7812C8.90625 12.9607 9.2322 12.1738 9.81239 11.5936C10.3926 11.0134 11.1795 10.6875 12 10.6875C12.8205 10.6875 13.6074 11.0134 14.1876 11.5936C14.7678 12.1738 15.0938 12.9607 15.0938 13.7812C15.0938 14.6018 14.7678 15.3887 14.1876 15.9689C13.6074 16.5491 12.8205 16.875 12 16.875C11.1795 16.875 10.3926 16.5491 9.81239 15.9689C9.2322 15.3887 8.90625 14.6018 8.90625 13.7812ZM3.75 6.04687C3.75 5.63662 3.91297 5.24316 4.20307 4.95307C4.49316 4.66297 4.88662 4.5 5.29688 4.5H18.7031C19.1134 4.5 19.5068 4.66297 19.7969 4.95307C20.087 5.24316 20.25 5.63662 20.25 6.04687V7.07812C20.2502 7.39815 20.1511 7.71035 19.9664 7.97169C19.7817 8.23304 19.5205 8.43067 19.2188 8.53734V12.75C19.2188 13.698 19.032 14.6367 18.6693 15.5125C18.3065 16.3883 17.7747 17.1841 17.1044 17.8544C16.4341 18.5247 15.6383 19.0565 14.7625 19.4193C13.8867 19.782 12.948 19.9687 12 19.9687C11.052 19.9687 10.1133 19.782 9.2375 19.4193C8.36168 19.0565 7.5659 18.5247 6.89557 17.8544C6.22525 17.1841 5.69352 16.3883 5.33074 15.5125C4.96797 14.6367 4.78125 13.698 4.78125 12.75V8.53734C4.47953 8.43067 4.21832 8.23304 4.03362 7.97169C3.84893 7.71035 3.74983 7.39815 3.75 7.07812V6.04687ZM5.8125 8.625V12.75C5.8125 14.391 6.4644 15.9648 7.62478 17.1252C8.78516 18.2856 10.359 18.9375 12 18.9375C13.641 18.9375 15.2148 18.2856 16.3752 17.1252C17.5356 15.9648 18.1875 14.391 18.1875 12.75V8.625H5.8125ZM5.29688 5.53125C5.16012 5.53125 5.02897 5.58557 4.93227 5.68227C4.83557 5.77897 4.78125 5.91012 4.78125 6.04687V7.07812C4.78125 7.21488 4.83557 7.34603 4.93227 7.44273C5.02897 7.53942 5.16012 7.59375 5.29688 7.59375H18.7031C18.8399 7.59375 18.971 7.53942 19.0677 7.44273C19.1644 7.34603 19.2188 7.21488 19.2188 7.07812V6.04687C19.2188 5.91012 19.1644 5.77897 19.0677 5.68227C18.971 5.58557 18.8399 5.53125 18.7031 5.53125H5.29688Z" fill="#162E55"/>
</svg>
