<svg width="24" height="24" viewBox="0 0 24 24" fill="none" xmlns="http://www.w3.org/2000/svg">
<path d="M4.6875 6H19.3125C20.6587 6 21.75 7.09131 21.75 8.4375V16.2375C21.75 17.5837 20.6587 18.675 19.3125 18.675H4.6875C3.34131 18.675 2.25 17.5837 2.25 16.2375V8.4375C2.25 7.09131 3.34131 6 4.6875 6ZM4.6875 6.975C3.87978 6.975 3.225 7.62978 3.225 8.4375V16.2375C3.225 17.0452 3.87978 17.7 4.6875 17.7H19.3125C20.1202 17.7 20.775 17.0452 20.775 16.2375V8.4375C20.775 7.62978 20.1202 6.975 19.3125 6.975H4.6875ZM5.6625 9.9C5.39326 9.9 5.175 9.68174 5.175 9.4125C5.175 9.14326 5.39326 8.925 5.6625 8.925H6.6375C6.90674 8.925 7.125 9.14326 7.125 9.4125C7.125 9.68174 6.90674 9.9 6.6375 9.9H5.6625ZM8.5875 9.9C8.31826 9.9 8.1 9.68174 8.1 9.4125C8.1 9.14326 8.31826 8.925 8.5875 8.925H9.5625C9.83174 8.925 10.05 9.14326 10.05 9.4125C10.05 9.68174 9.83174 9.9 9.5625 9.9H8.5875ZM11.5125 9.9C11.2433 9.9 11.025 9.68174 11.025 9.4125C11.025 9.14326 11.2433 8.925 11.5125 8.925H12.4875C12.7567 8.925 12.975 9.14326 12.975 9.4125C12.975 9.68174 12.7567 9.9 12.4875 9.9H11.5125ZM14.4375 9.9C14.1683 9.9 13.95 9.68174 13.95 9.4125C13.95 9.14326 14.1683 8.925 14.4375 8.925H15.4125C15.6817 8.925 15.9 9.14326 15.9 9.4125C15.9 9.68174 15.6817 9.9 15.4125 9.9H14.4375ZM17.3625 9.9C17.0933 9.9 16.875 9.68174 16.875 9.4125C16.875 9.14326 17.0933 8.925 17.3625 8.925H18.3375C18.6067 8.925 18.825 9.14326 18.825 9.4125C18.825 9.68174 18.6067 9.9 18.3375 9.9H17.3625ZM5.6625 12.825C5.39326 12.825 5.175 12.6067 5.175 12.3375C5.175 12.0683 5.39326 11.85 5.6625 11.85H6.6375C6.90674 11.85 7.125 12.0683 7.125 12.3375C7.125 12.6067 6.90674 12.825 6.6375 12.825H5.6625ZM8.5875 12.825C8.31826 12.825 8.1 12.6067 8.1 12.3375C8.1 12.0683 8.31826 11.85 8.5875 11.85H9.5625C9.83174 11.85 10.05 12.0683 10.05 12.3375C10.05 12.6067 9.83174 12.825 9.5625 12.825H8.5875ZM11.5125 12.825C11.2433 12.825 11.025 12.6067 11.025 12.3375C11.025 12.0683 11.2433 11.85 11.5125 11.85H12.4875C12.7567 11.85 12.975 12.0683 12.975 12.3375C12.975 12.6067 12.7567 12.825 12.4875 12.825H11.5125ZM14.4375 12.825C14.1683 12.825 13.95 12.6067 13.95 12.3375C13.95 12.0683 14.1683 11.85 14.4375 11.85H15.4125C15.6817 11.85 15.9 12.0683 15.9 12.3375C15.9 12.6067 15.6817 12.825 15.4125 12.825H14.4375ZM17.3625 12.825C17.0933 12.825 16.875 12.6067 16.875 12.3375C16.875 12.0683 17.0933 11.85 17.3625 11.85H18.3375C18.6067 11.85 18.825 12.0683 18.825 12.3375C18.825 12.6067 18.6067 12.825 18.3375 12.825H17.3625ZM5.6625 15.75C5.39326 15.75 5.175 15.5317 5.175 15.2625C5.175 14.9933 5.39326 14.775 5.6625 14.775H6.6375C6.90674 14.775 7.125 14.9933 7.125 15.2625C7.125 15.5317 6.90674 15.75 6.6375 15.75H5.6625ZM8.5875 15.75C8.31826 15.75 8.1 15.5317 8.1 15.2625C8.1 14.9933 8.31826 14.775 8.5875 14.775H15.4125C15.6817 14.775 15.9 14.9933 15.9 15.2625C15.9 15.5317 15.6817 15.75 15.4125 15.75H8.5875ZM17.3625 15.75C17.0933 15.75 16.875 15.5317 16.875 15.2625C16.875 14.9933 17.0933 14.775 17.3625 14.775H18.3375C18.6067 14.775 18.825 14.9933 18.825 15.2625C18.825 15.5317 18.6067 15.75 18.3375 15.75H17.3625Z" fill="#162E55"/>
</svg>
