<svg width="24" height="24" viewBox="0 0 24 24" fill="none" xmlns="http://www.w3.org/2000/svg">
<path d="M16.2487 2.25C17.0564 2.25 17.7112 2.90478 17.7112 3.7125L17.7112 20.2875C17.7112 21.0952 17.0564 21.75 16.2487 21.75L7.46261 21.75C6.65489 21.75 6.00011 21.0952 6.00011 20.2875L6.00011 3.7125C6.00011 2.90478 6.65489 2.25 7.46261 2.25L16.2487 2.25ZM16.2487 3.225L7.46261 3.225C7.19337 3.225 6.97511 3.44326 6.97511 3.7125L6.97511 20.2875C6.97511 20.5567 7.19337 20.775 7.46261 20.775L16.2487 20.775C16.5179 20.775 16.7362 20.5567 16.7362 20.2875L16.7362 3.7125C16.7362 3.44326 16.5179 3.225 16.2487 3.225ZM13.3237 19.8L10.3987 19.8C10.1294 19.8 9.91118 19.5817 9.91118 19.3125C9.91118 19.0433 10.1294 18.825 10.3987 18.825L13.3237 18.825C13.5929 18.825 13.8112 19.0433 13.8112 19.3125C13.8112 19.5817 13.5929 19.8 13.3237 19.8Z" fill="#162E55"/>
</svg>
