<svg width="32" height="32" viewBox="0 0 32 32" fill="none" xmlns="http://www.w3.org/2000/svg">
<path d="M11.768 6.17328C10.7831 5.94224 9.75802 5.94224 8.77309 6.17328C7.4831 6.47587 6.47587 7.4831 6.17328 8.77309C5.94224 9.75802 5.94224 10.7831 6.17328 11.768C6.47587 13.058 7.4831 14.0652 8.77309 14.3678C9.75802 14.5988 10.7831 14.5988 11.768 14.3678C13.058 14.0652 14.0652 13.058 14.3678 11.768C14.5988 10.7831 14.5988 9.75802 14.3678 8.77309C14.0652 7.4831 13.058 6.47587 11.768 6.17328Z" fill="#294167"/>
<path d="M11.768 17.6322C10.7831 17.4012 9.75802 17.4012 8.77309 17.6322C7.4831 17.9348 6.47587 18.942 6.17328 20.232C5.94224 21.2169 5.94224 22.242 6.17328 23.2269C6.47587 24.5169 7.4831 25.5241 8.77309 25.8267C9.75802 26.0578 10.7831 26.0578 11.768 25.8267C13.058 25.5241 14.0652 24.5169 14.3678 23.2269C14.5988 22.242 14.5988 21.2169 14.3678 20.232C14.0652 18.942 13.058 17.9348 11.768 17.6322Z" fill="#294167"/>
<path d="M23.2269 6.17328C22.242 5.94224 21.2169 5.94224 20.232 6.17328C18.942 6.47587 17.9348 7.4831 17.6322 8.77309C17.4012 9.75802 17.4012 10.7831 17.6322 11.768C17.9348 13.058 18.942 14.0652 20.232 14.3678C21.2169 14.5988 22.242 14.5988 23.2269 14.3678C24.5169 14.0652 25.5241 13.058 25.8267 11.768C26.0578 10.7831 26.0578 9.75802 25.8267 8.77309C25.5241 7.4831 24.5169 6.47587 23.2269 6.17328Z" fill="#294167"/>
<path d="M23.2269 17.6322C22.242 17.4012 21.2169 17.4012 20.232 17.6322C18.942 17.9348 17.9348 18.942 17.6322 20.232C17.4012 21.2169 17.4012 22.242 17.6322 23.2269C17.9348 24.5169 18.942 25.5241 20.232 25.8267C21.2169 26.0578 22.242 26.0578 23.2269 25.8267C24.5169 25.5241 25.5241 24.5169 25.8267 23.2269C26.0578 22.242 26.0578 21.2169 25.8267 20.232C25.5241 18.942 24.5169 17.9348 23.2269 17.6322Z" fill="#294167"/>
</svg>
