<svg width="32" height="32" viewBox="0 0 32 32" fill="none" xmlns="http://www.w3.org/2000/svg">
<path fill-rule="evenodd" clip-rule="evenodd" d="M16 6C15.3047 6 14.6144 6.12257 13.968 6.36237C13.3215 6.60218 12.7287 6.95563 12.2254 7.40641C11.7219 7.85734 11.317 8.39767 11.0387 8.99928C10.8705 9.36293 10.751 9.74377 10.6828 10.1334H6.76923C6.3444 10.1334 6 10.4804 6 10.9084C6 11.3364 6.3444 11.6834 6.76923 11.6834H8.05128V16.1803C8.05128 17.8679 8.28887 19.5471 8.75695 21.1676C9.45694 23.5909 11.4723 25.3965 13.9429 25.8137L14.1046 25.8411C15.3594 26.053 16.6405 26.053 17.8953 25.8411L18.0571 25.8137C20.5277 25.3965 22.543 23.5909 23.243 21.1676C23.7111 19.5471 23.9487 17.8679 23.9487 16.1802V11.6834H25.2308C25.6556 11.6834 26 11.3364 26 10.9084C26 10.4804 25.6556 10.1334 25.2308 10.1334H21.3172C21.249 9.74377 21.1295 9.36293 20.9613 8.99928C20.6831 8.39767 20.2781 7.85734 19.7746 7.40641C19.2713 6.95563 18.6785 6.60218 18.032 6.36237C17.3856 6.12257 16.6953 6 16 6ZM14.4995 7.81693C14.9731 7.64128 15.4831 7.55003 16 7.55003C16.5169 7.55003 17.027 7.64128 17.5005 7.81693C17.9739 7.99257 18.3987 8.24805 18.7525 8.56491C19.1062 8.88162 19.3812 9.25262 19.5668 9.65398C19.6392 9.81046 19.6976 9.97073 19.742 10.1334L12.258 10.1334C12.3024 9.97073 12.3608 9.81046 12.4332 9.65398C12.6188 9.25262 12.8938 8.88162 13.2475 8.56491C13.6013 8.24805 14.0261 7.99257 14.4995 7.81693ZM13.9487 15.3002C14.3736 15.3002 14.7179 15.6471 14.7179 16.0752V20.2086C14.7179 20.6366 14.3736 20.9836 13.9487 20.9836C13.5239 20.9836 13.1795 20.6366 13.1795 20.2086V16.0752C13.1795 15.6471 13.5239 15.3002 13.9487 15.3002ZM18.0513 15.3002C18.4761 15.3002 18.8205 15.6471 18.8205 16.0752V20.2086C18.8205 20.6366 18.4761 20.9836 18.0513 20.9836C17.6264 20.9836 17.2821 20.6366 17.2821 20.2086V16.0752C17.2821 15.6471 17.6264 15.3002 18.0513 15.3002Z" fill="#4680E4"/>
</svg>
