<svg width="40" height="40" viewBox="0 0 40 40" fill="none" xmlns="http://www.w3.org/2000/svg">
<path fill-rule="evenodd" clip-rule="evenodd" d="M30.8033 35.8654C28.0095 37.7286 25.1115 38.7123 21.5558 38.9859C20.9306 39.0315 19.0095 38.9599 18.2345 38.8622C14.0601 38.3149 10.4588 36.5559 7.51528 33.6178C6.07606 32.1845 5.20341 31.0314 4.27215 29.3571C2.62454 26.3799 1.79096 22.6143 2.04494 19.2853C2.40312 14.6533 4.194 10.6988 7.39154 7.48707C8.49864 6.37956 9.13684 5.83884 10.2244 5.1157C12.7056 3.46095 15.2063 2.52934 18.2671 2.11239C19.3807 1.96255 21.647 1.96255 22.7606 2.11239C27.0131 2.68569 30.5688 4.42513 33.5124 7.36329C34.6195 8.4708 35.16 9.10925 35.8829 10.1972C37.5175 12.6468 38.4748 15.2071 38.8851 18.2429C39.0218 19.2267 39.0414 21.5394 38.9176 22.5101C38.3836 26.8489 36.6318 30.4907 33.6361 33.494C32.529 34.6015 31.8908 35.1422 30.8033 35.8654ZM10.8756 32.4191C13.2331 34.3149 16.0594 35.468 19.0746 35.7611C19.8887 35.8458 21.2367 35.8393 22.0442 35.7611C23.8937 35.5722 25.8344 34.9924 27.5406 34.1194C28.2309 33.7676 29.5855 32.8881 30.139 32.4321C30.6861 31.9891 31.8583 30.8229 32.2946 30.2952C37.4198 24.1062 36.9509 15.1159 31.2136 9.54574C30.3018 8.65973 29.9567 8.37308 29.0059 7.73463C27.0131 6.40562 25.0008 5.64991 22.4675 5.26554C21.5884 5.13524 19.27 5.15479 18.3322 5.30462C15.9617 5.66945 13.9625 6.4382 12.0348 7.72812C11.0449 8.39262 10.7454 8.63367 9.84668 9.51316C8.94799 10.3861 8.427 11.005 7.75623 12.0083C4.66289 16.6468 4.33076 22.5231 6.8901 27.52C7.29386 28.3148 8.14697 29.5982 8.71354 30.2822C9.18243 30.836 10.3677 32.0086 10.8756 32.4191ZM29.0955 9.23659C32.3186 11.7067 34.2976 15.3828 34.6328 19.504C34.678 20.1102 34.6135 21.7612 34.5104 22.4965C34.1816 24.8311 33.1953 27.1658 31.7514 29.049C29.8046 31.59 27.0392 33.4152 23.9837 34.1762C22.9781 34.4213 22.0692 34.5503 20.9282 34.6019L19.9806 34.647L19.9484 34.4922C19.9313 34.4181 19.9092 34.1726 19.8864 33.9206C19.8835 33.8875 19.8805 33.8544 19.8775 33.8215C19.8581 33.5377 19.8259 33.2411 19.8066 33.1637C19.7679 33.0218 19.7808 33.0153 20.2707 33.0153C20.8637 33.0153 21.1409 32.8864 21.3021 32.5445C21.4048 32.3325 21.4116 32.3317 22.0489 32.2552L22.0563 32.2543C27.3035 31.6223 31.674 27.2432 32.2993 22.0063C32.3767 21.3807 32.3896 21.342 32.5507 21.2775C32.6474 21.2324 32.7957 21.1292 32.8795 21.0389C33.0213 20.8841 33.0277 20.839 33.0277 19.9361C33.0213 18.2076 32.6023 16.5502 31.7385 14.8282C29.6886 10.7457 25.3825 7.97897 21.0571 7.95962C20.1547 7.95962 20.1095 7.96607 19.9548 8.10796C19.8646 8.1918 19.7614 8.34014 19.7163 8.43688C19.6519 8.59811 19.6132 8.61101 18.9879 8.6884C13.7471 9.32044 9.37017 13.6995 8.74489 18.9364C8.66754 19.562 8.65464 19.6007 8.49349 19.6652C8.11316 19.8264 8.01647 20.0135 7.99068 20.6455C7.97135 21.2001 7.9649 21.2259 7.82953 21.1872C7.75862 21.1679 7.4621 21.1356 7.17847 21.1163C7.14566 21.1133 7.1126 21.1103 7.07964 21.1074C6.82768 21.0846 6.58217 21.0625 6.50806 21.0454L6.35335 21.0131L6.39847 20.0651C6.41781 19.5491 6.48228 18.8139 6.54029 18.4398C7.4492 12.2291 12.2839 7.39853 18.5238 6.46982C19.5745 6.31504 21.4761 6.31504 22.4882 6.46338C24.9571 6.84388 27.2004 7.77904 29.0955 9.23659Z" fill="#162E55"/>
<path fill-rule="evenodd" clip-rule="evenodd" d="M13.3801 17.0757C13.8995 16.0058 14.9412 15.2268 16.0956 15.0485C16.3178 15.011 17.2269 15.0047 22.27 15.0016L23.6506 15.0008C28.0078 14.9979 28.3506 14.9977 28.3858 15.1017C28.3888 15.1106 28.3896 15.1202 28.3904 15.1307V15.1307C28.3917 15.1471 28.3932 15.1655 28.4037 15.1862C28.4725 15.3207 28.4725 16.6784 28.4037 16.8129C28.3931 16.8337 28.3916 16.8521 28.3903 16.8685C28.3894 16.879 28.3886 16.8887 28.3856 16.8976C28.3502 17.0017 28.0087 17.0016 23.6735 17.0008L22.3326 17.0007L21.2547 17.0006H21.2547C16.4999 17 16.2264 17 16.0261 17.1211C16.0139 17.1285 16.0019 17.1363 15.9893 17.1447C15.9651 17.1605 15.9382 17.1782 15.9017 17.1977C15.6577 17.326 15.3323 17.6514 15.204 17.8954C14.9381 18.3991 14.9538 19.0216 15.2416 19.5191C15.4731 19.9101 15.983 20.2542 16.4304 20.3168C16.5524 20.3325 16.8452 20.3481 17.4334 20.3481H18.5065L18.6066 20.4388C18.7004 20.5233 18.7098 20.5452 18.7192 20.7673L18.7317 21.0051H19.2416C19.5232 21.0051 19.7922 21.0207 19.8454 21.0395C20.0613 21.1146 20.1176 21.4024 19.9487 21.5713L19.8579 21.6621H19.2917H18.7254V21.8654C18.7254 22.0969 18.6879 22.2001 18.5721 22.2784C18.5002 22.3284 18.3844 22.3347 17.5053 22.3441C15.9943 22.3597 15.7765 22.294 15.1383 21.9905C14.7316 21.7966 14.4438 21.5995 14.1247 21.2929C12.9891 20.2011 12.6888 18.4992 13.3801 17.0757ZM20.3838 19.0029C20.3838 18.6462 20.4213 18.4961 20.5308 18.4085C20.5778 18.3709 20.6591 18.3459 20.7279 18.3459C20.8781 18.3459 20.997 18.4397 21.0408 18.5899C21.0814 18.7401 21.0814 19.2657 21.0408 19.4158C20.9782 19.6411 20.7091 19.738 20.5308 19.5973C20.4213 19.5097 20.3838 19.3595 20.3838 19.0029ZM18.985 18.6837C18.8942 18.6962 18.7628 18.8245 18.7378 18.9215C18.7003 19.081 18.7566 19.1718 19.157 19.5722C19.5575 19.9727 19.6482 20.029 19.8078 19.9914C19.9047 19.9664 20.0267 19.8413 20.0455 19.7443C20.0768 19.5879 20.008 19.4846 19.6263 19.1029C19.2446 18.7275 19.1414 18.6587 18.985 18.6837ZM21.422 19.5817C21.4564 19.4534 22.1822 18.7276 22.3073 18.6963C22.4356 18.6619 22.5263 18.6838 22.617 18.7683C22.7109 18.8527 22.7453 18.9685 22.714 19.0874C22.6859 19.2031 21.9288 19.9602 21.8162 19.9884C21.6941 20.0197 21.5784 19.9852 21.4939 19.8914C21.4063 19.7975 21.3876 19.7131 21.422 19.5817ZM23.0114 19.6817C22.7987 19.7505 22.7298 19.8663 22.7298 20.1604V20.3481H22.1636H21.5973L21.5066 20.4388C21.3377 20.6077 21.394 20.8956 21.6098 20.9706C21.663 20.9894 21.9321 21.005 22.2136 21.005H22.7236L22.7361 21.2428C22.7455 21.4649 22.7549 21.4868 22.8487 21.5713L22.9488 21.662H23.736C24.3241 21.662 24.906 21.6777 25.0249 21.6933C25.4723 21.7559 25.9822 22.1 26.2137 22.4911C26.5015 22.9885 26.5172 23.6111 26.2512 24.1147C26.123 24.3588 25.7976 24.6841 25.5536 24.8124C25.5171 24.8319 25.4902 24.8496 25.466 24.8655L25.466 24.8655C25.4533 24.8738 25.4414 24.8816 25.4292 24.889C25.2289 25.0101 24.9553 25.0101 20.2006 25.0096L19.1227 25.0095L17.7818 25.0093C13.4466 25.0085 13.1051 25.0085 13.0697 25.1126C13.0666 25.1215 13.0659 25.1311 13.065 25.1416C13.0636 25.158 13.0621 25.1765 13.0516 25.1972C12.9828 25.3317 12.9828 26.6895 13.0516 26.824C13.0621 26.8447 13.0636 26.8631 13.0649 26.8795C13.0658 26.89 13.0666 26.8996 13.0696 26.9085C13.1049 27.0127 13.4475 27.0126 17.806 27.0118H17.8061L19.154 27.0117L19.7679 27.0117H19.768C24.9777 27.0119 25.368 27.0119 25.7196 26.8953C25.748 26.8859 25.7763 26.8757 25.8067 26.8647L25.8068 26.8647L25.8068 26.8647L25.8068 26.8647L25.8069 26.8646C25.8413 26.8522 25.8788 26.8386 25.9228 26.824C27.6872 26.2327 28.7415 24.4182 28.3723 22.6162C28.219 21.8841 27.8593 21.2272 27.3306 20.7172C26.708 20.1166 25.954 19.7724 25.0875 19.6911C24.7465 19.6598 23.1021 19.6504 23.0114 19.6817ZM18.7663 23.2074C18.7945 23.1574 18.9884 22.9446 19.2043 22.7319C19.5703 22.3721 19.5985 22.3502 19.7174 22.3502C19.9332 22.3502 20.0834 22.5379 20.0458 22.7569C20.0365 22.8039 19.8706 22.9978 19.6172 23.2481C19.2231 23.6454 19.2012 23.6642 19.076 23.6642C18.8289 23.6642 18.6599 23.4139 18.7663 23.2074ZM21.5286 22.4159C21.441 22.4848 21.3878 22.6349 21.4097 22.7569C21.4191 22.8039 21.5849 22.9978 21.8383 23.2481C22.2325 23.6454 22.2544 23.6642 22.3795 23.6642C22.6267 23.6642 22.7956 23.4139 22.6892 23.2074C22.6611 23.1574 22.4671 22.9446 22.2513 22.7319C21.8852 22.3721 21.8571 22.3502 21.7382 22.3502C21.6569 22.3502 21.5818 22.3753 21.5286 22.4159ZM20.4897 22.7913C20.5397 22.7413 20.6085 22.6912 20.6461 22.685C20.7618 22.6631 20.8651 22.7006 20.962 22.7913L21.0559 22.882V23.3294C21.0559 23.708 21.0465 23.7862 20.9996 23.8581C20.9214 23.9739 20.7587 24.0239 20.621 23.977C20.4271 23.9144 20.3989 23.8331 20.3989 23.3294V22.8852L20.4897 22.7913Z" fill="#162E55"/>
</svg>
