<svg width="335" height="335" viewBox="0 0 335 335" fill="none" xmlns="http://www.w3.org/2000/svg">
<g clip-path="url(#clip0_723_2991)">
<path d="M156.577 329.349C147.462 328.711 133.79 326.478 132.741 325.475C132.24 325.02 132.24 324.837 132.741 324.473C133.152 324.108 134.61 324.199 137.8 324.837C156.941 328.529 178.908 328.438 198.232 324.518C215.687 321.009 232.503 314.583 247.042 305.833C252.055 302.825 253.604 302.324 253.331 303.691C253.149 304.694 247.725 308.066 239.567 312.213C226.67 318.822 215.231 322.878 200.556 326.113C187.658 328.939 169.292 330.306 156.577 329.349Z" fill="#4680E4"/>
<path d="M167.924 319.414C168.061 319.186 171.206 318.867 174.897 318.73C211.174 317.226 246.859 301.093 272.882 274.387C278.168 268.963 284.093 261.717 288.149 255.747C291.522 250.779 291.203 251.189 291.522 251.554C291.795 251.827 287.055 258.891 284.002 262.811C258.025 295.807 220.107 316.133 178.68 319.323C171.206 319.87 167.605 319.915 167.924 319.414Z" fill="#4680E4"/>
<path d="M95.2789 312.213C83.7031 306.106 71.6715 297.812 63.1491 290.11C59.412 286.737 58.8195 285.917 59.731 285.37C60.2779 285.051 60.3235 285.097 68.0255 291.568C77.0036 299.133 87.4857 306.061 98.0134 311.347C101.021 312.851 103.027 314.127 103.027 314.538C103.027 315.814 100.976 315.221 95.2789 312.213Z" fill="#4680E4"/>
<path d="M154.754 313.079C153.523 312.988 149.285 312.396 145.411 311.757C122.305 308.066 101.295 299.179 82.7463 285.188C75.7279 279.901 73.8594 278.033 73.8594 276.21C73.8594 275.161 74.1784 274.478 75.0443 273.794C76.685 272.518 78.0978 272.609 79.8752 274.113C98.0137 289.654 120.755 300.41 144.044 304.511C151.108 305.787 160.587 306.562 169.155 306.562C178.407 306.562 178.68 306.653 179.364 309.388C179.637 310.39 179.409 310.892 178.315 312.031L176.948 313.398L166.968 313.307C161.499 313.261 156.03 313.17 154.754 313.079Z" fill="#4680E4"/>
<path d="M62.0555 302.597C55.1282 297.037 46.9705 289.244 46.9705 288.15C46.9705 286.19 49.0213 285.324 50.2062 286.828C51.3456 288.196 61.0985 296.946 64.4254 299.589C67.889 302.324 68.3903 302.825 68.3903 303.691C68.3903 304.374 67.1143 305.651 66.3851 305.651C66.1116 305.651 64.1519 304.283 62.0555 302.597Z" fill="#4680E4"/>
<path d="M152.11 301.777C149.421 301.458 146.869 300.911 146.504 300.592C146.14 300.273 145.866 299.498 145.957 298.86C146.094 297.766 146.231 297.675 148.373 297.721C149.649 297.721 153.842 297.994 157.716 298.313C201.33 302.05 245.218 281.542 270.603 245.493C274.158 240.434 275.206 239.659 276.573 241.026C277.485 241.938 277.211 242.621 274.841 246.176C264.861 260.942 250.596 274.341 234.371 284.14C218.603 293.71 199.325 300.09 180.548 302.005C174.213 302.643 158.217 302.506 152.11 301.777Z" fill="#4680E4"/>
<path d="M82.5186 292.844C47.6543 267.869 25.8243 230.727 20.9478 188.069C20.1275 180.868 20.2187 164.051 21.1757 156.167C21.5859 152.567 22.0416 149.468 22.1783 149.377C22.7708 148.784 22.7708 150.197 22.1328 154.845C21.7226 157.717 21.3124 164.143 21.1301 169.201C20.3554 195.224 26.5079 220.336 39.4054 243.67C49.7052 262.218 65.7017 280.129 82.4275 291.75C86.6203 294.622 87.7141 295.624 86.757 295.624C86.5292 295.624 84.6606 294.348 82.5186 292.844Z" fill="#4680E4"/>
<path d="M156.44 291.978C133.425 289.745 110.638 280.494 92.5446 266.092C87.7593 262.309 77.5051 252.283 77.5051 251.463C77.5051 251.189 77.7786 250.825 78.1432 250.688C78.5533 250.506 80.6953 252.329 83.9767 255.656C110.82 282.727 149.057 294.986 187.111 288.743C193.036 287.785 201.239 285.689 206.161 283.912C209.215 282.818 210.126 282.818 210.126 284.003C210.126 285.37 198.003 288.925 186.519 290.884C178.953 292.161 164.187 292.707 156.44 291.978Z" fill="#4680E4"/>
<path d="M153.614 286.236C133.288 283.821 112.825 275.253 96.1907 262.173C85.4352 253.696 70.2134 235.876 70.2134 231.684C70.2134 229.45 71.7173 227.4 73.7682 226.762C76.457 225.987 78.1433 226.989 81.06 231.273C94.9602 251.827 117.064 267.414 140.762 273.521C150.652 276.073 155.802 276.665 167.286 276.711C178.361 276.711 182.691 276.255 191.76 274.159C197.548 272.837 205.933 269.92 211.995 267.095C217.236 264.634 217.6 264.543 219.287 265.044C221.611 265.728 222.887 267.459 222.887 269.875C222.887 272.473 221.657 273.703 216.689 276.027C205.295 281.359 193.218 284.823 180.731 286.282C173.53 287.102 160.769 287.102 153.614 286.236Z" fill="#4680E4"/>
<path d="M94.8232 280.494C77.9607 268.827 65.4734 255.61 55.7205 239.067C46.6056 223.617 40.9544 207.256 38.4934 188.981C37.3085 180.504 37.3085 164.689 38.4934 156.167C40.9544 137.983 47.2437 120.118 56.4497 105.261C58.1815 102.435 58.8651 101.66 59.8222 101.569C60.6881 101.478 61.1894 101.706 61.554 102.389C62.0097 103.255 61.7819 103.893 59.8222 107.084C50.844 121.986 45.3751 137.026 42.6407 154.344C41.6381 160.633 41.2279 178.59 41.9115 184.97C43.2332 196.637 45.6486 207.028 49.2034 216.507C58.7284 241.847 74.4971 261.854 97.3298 277.531C99.8363 279.263 100.383 280.311 99.2895 281.405C98.4235 282.271 97.0107 281.998 94.8232 280.494Z" fill="#4680E4"/>
<path d="M280.311 279.947C280.311 279.4 281.541 277.896 285.916 273.065C289.927 268.69 298.814 255.975 302.505 249.366C307.701 240.115 312.714 228.721 315.175 220.791C315.813 218.74 316.177 218.148 316.861 218.148C317.681 218.148 317.727 218.376 317.454 219.789C317.043 222.022 313.762 230.909 311.119 236.833C304.921 250.916 294.393 266.958 283.911 278.215C281.769 280.539 280.311 281.223 280.311 279.947Z" fill="#4680E4"/>
<path d="M35.5771 275.253C34.4377 274.933 28.1485 266.001 23.1809 257.57C1.16854 220.381 -5.4853 176.129 4.5866 134.018C7.5945 121.394 8.73386 118.979 10.967 120.163C12.1064 120.756 12.1064 121.485 10.967 125.177C5.49809 142.859 3.12823 162.411 4.13086 181.461C5.90826 214.092 16.1625 242.394 36.7164 271.151C37.9469 272.883 38.2204 273.566 37.8558 274.204C37.3545 275.116 36.5797 275.48 35.5771 275.253Z" fill="#4680E4"/>
<path d="M297.264 275.025C296.307 274.068 296.626 273.338 300.044 268.553C305.969 260.35 309.66 254.243 314.172 245.219C331.627 210.355 335.911 170.614 326.249 132.696C321.829 115.241 313.671 96.875 303.963 82.5191C301.639 79.0099 301.366 78.3263 302.277 77.4148C303.644 76.0476 304.784 76.8223 307.427 80.7873C325.383 107.813 335 139.806 335 172.802C335 208.076 324.472 240.844 303.827 269.92C299.725 275.663 298.722 276.483 297.264 275.025Z" fill="#4680E4"/>
<path d="M230.498 273.885C229.678 273.111 230.498 272.199 234.326 269.601C243.304 263.586 252.556 254.972 259.62 246.131C269.099 234.236 275.48 222.067 280.584 206.071C281.04 204.567 282.27 204.248 282.498 205.524C282.863 207.393 278.579 218.513 274.067 227.4C265.408 244.444 251.69 260.122 235.967 270.923C230.863 274.432 230.954 274.387 230.498 273.885Z" fill="#4680E4"/>
<path d="M160.086 273.384C159.493 273.202 159.038 272.928 159.038 272.746C159.083 272.518 159.083 272.199 159.083 272.017C159.083 271.789 162.638 271.607 166.968 271.607C194.039 271.607 218.421 261.671 237.152 243.077C252.419 227.946 261.443 210.537 265.317 188.798C266.41 182.874 266.957 168.654 266.319 163.55C265.864 160.086 266.228 158.993 267.55 159.813C268.142 160.178 268.233 162.183 268.233 172.437C268.233 183.101 268.097 185.335 267.185 190.12C262.81 213.955 250.596 235.01 232.458 250.141C217.509 262.628 199.735 270.331 180.184 272.837C173.393 273.703 162.365 274.022 160.086 273.384Z" fill="#4680E4"/>
<path d="M267.641 266.776C265.863 264.907 266.319 263.403 269.737 259.347C282.452 244.262 292.114 226.124 296.899 208.122C300.135 196.136 301.32 186.793 301.457 173.121C301.548 163.459 301.594 162.912 302.505 162.001C303.644 160.861 306.06 160.77 307.108 161.818C308.065 162.775 308.521 166.011 308.521 172.118C308.703 205.478 297.036 237.654 275.616 263.175C273.885 265.272 272.062 267.14 271.606 267.368C270.239 268.143 268.689 267.869 267.641 266.776Z" fill="#4680E4"/>
<path d="M158.901 258.664C156.394 258.436 152.019 257.706 149.148 257.068C132.058 253.24 117.702 245.219 105.488 232.686C92.8637 219.652 85.3895 204.749 81.9714 185.79C81.0599 180.595 81.1967 163.96 82.2449 158.446C85.7541 139.578 94.003 123.946 107.356 110.866C113.235 105.124 123.626 97.6953 126.68 97.1029C128.184 96.7838 130.462 97.8321 131.465 99.2904C132.331 100.521 132.422 103.757 131.647 104.759C131.328 105.17 128.594 107.129 125.586 109.134C108.268 120.71 97.649 136.023 92.8637 156.395C91.542 162.001 91.4964 162.821 91.4509 172.346C91.4053 182.509 91.4509 182.919 93.5017 191.578C96.0083 202.106 102.115 213.773 109.635 222.432C124.993 239.978 145.365 249.138 169.018 249.138C174.624 249.138 174.669 249.138 175.991 250.46C177.039 251.554 177.313 252.192 177.313 253.878C177.313 258.846 173.165 259.894 158.901 258.664Z" fill="#4680E4"/>
<path d="M199.052 258.39C197.958 257.342 199.006 256.476 203.791 254.38C212.906 250.46 221.656 244.536 229.677 237.061C232.047 234.783 233.597 233.643 234.053 233.826C235.511 234.372 234.645 235.922 230.862 239.477C223.479 246.45 214.137 252.739 205.204 256.658C200.555 258.709 199.598 258.983 199.052 258.39Z" fill="#4680E4"/>
<path d="M110.091 255.883C102.708 250.779 93.5019 242.257 88.352 235.694C76.5027 220.609 69.5754 203.929 66.9777 184.241C66.1573 177.906 66.6587 161.727 67.8892 155.256C69.5298 146.551 70.2134 144.728 71.4439 145.731C71.8085 146.05 71.9453 146.596 71.8085 146.961C71.4895 147.827 69.9856 154.891 69.2108 159.357C68.8462 161.499 68.6183 166.558 68.6183 173.03C68.6183 183.967 69.0741 188.023 71.3528 197.002C76.9584 219.379 90.9953 239.887 109.772 253.149C112.324 254.972 113.965 256.43 113.874 256.841C113.646 258.025 112.871 257.798 110.091 255.883Z" fill="#4680E4"/>
<path d="M159.994 245.082C146.915 243.67 133.516 238.383 123.353 230.544C117.155 225.804 109.817 218.011 110.683 217.145C111.002 216.826 111.595 217.191 112.643 218.421C124.264 232.23 140.808 241.163 159.083 243.487C165.646 244.308 169.383 244.308 176.128 243.442C196.636 240.89 214.729 229.952 226.533 212.861C229.677 208.304 233.278 201.24 234.964 196.181C235.784 193.811 236.559 192.171 236.924 192.171C239.248 192.171 231.591 208.714 225.712 216.462C215.048 230.59 198.687 240.707 181.232 244.08C175.763 245.174 165.281 245.629 159.994 245.082Z" fill="#4680E4"/>
<path d="M252.237 244.125C250.642 243.487 249.32 241.436 249.32 239.568C249.32 238.246 249.867 237.107 251.781 234.464C266.274 214.229 272.973 191.35 271.606 166.467C270.512 146.141 263.403 126.544 251.28 110.593C245.583 103.028 245.674 103.21 245.674 101.341C245.674 99.017 248.044 96.4648 250.186 96.4648C252.601 96.4648 253.878 97.4675 257.523 102.162C262.992 109.271 266.456 114.74 270.33 122.67C275.708 133.699 278.807 143.543 280.857 156.304C282.179 164.37 282.27 180.23 281.04 188.069C278.077 207.301 271.287 224.392 260.805 239.021C257.113 244.216 255.199 245.356 252.237 244.125Z" fill="#4680E4"/>
<path d="M45.1019 242.257C43.917 241.072 38.4937 229.997 36.3061 224.346C30.5182 209.352 27.9205 197.548 26.8722 180.914C24.3657 142.54 38.0835 104.85 64.8356 76.4122C88.2607 51.5287 118.75 36.4892 152.931 32.8888C158.946 32.2508 159.767 32.2508 160.724 32.8888C162.182 33.8003 162.82 35.1675 162.456 36.4892C161.954 38.6311 160.769 39.1325 155.574 39.5882C108.678 43.462 66.7953 72.6295 46.2869 115.788C39.9065 129.233 36.0782 142.814 34.1641 158.674C33.4805 164.553 33.4805 180.549 34.1641 186.702C36.1238 203.883 40.6357 218.968 48.6112 234.6C50.5253 238.337 51.0266 239.796 50.7987 240.707C50.2063 243.123 46.8793 244.034 45.1019 242.257Z" fill="#4680E4"/>
<path d="M100.976 236.332C90.676 225.349 83.7487 213.454 79.2369 199.098C78.0064 195.042 76.229 186.064 76.0467 182.828C75.9099 180.185 75.9555 180.094 77.0493 180.094C78.1431 180.094 78.1887 180.276 79.1457 186.246C82.108 205.068 90.1291 221.201 103.437 235.102C106.262 238.11 106.718 238.748 106.217 239.34C105.898 239.705 105.396 240.024 105.077 240.024C104.758 240.024 102.935 238.337 100.976 236.332Z" fill="#4680E4"/>
<path d="M158.399 236.514C155.984 236.15 147.507 234.008 146.641 233.552C146.094 233.279 145.866 232.732 145.958 231.911C146.14 230.408 146.869 230.408 151.928 231.729C157.579 233.279 162.82 233.78 170.021 233.507C179.136 233.188 185.789 231.592 194.038 227.719C208.166 221.11 220.836 206.8 225.576 192.08C226.123 190.393 226.487 190.12 227.9 190.348C229.13 190.53 229.176 191.35 228.082 194.541C222.158 212.041 206.662 227.308 188.478 233.507C181.46 235.876 177.586 236.514 168.426 236.606C163.686 236.697 159.174 236.651 158.399 236.514Z" fill="#4680E4"/>
<path d="M238.519 228.357C238.382 227.946 238.428 227.354 238.656 227.081C238.884 226.762 240.57 224.301 242.393 221.521C263.858 189.3 261.58 146.46 236.787 116.29C228.356 106.035 218.056 97.9232 206.161 92.272C203.564 91.0415 201.376 89.8566 201.239 89.6287C200.875 88.9907 201.513 87.8057 202.242 87.8057C202.652 87.8057 204.84 88.7172 207.118 89.7654C230.954 101.113 249.092 122.579 256.156 147.781C258.617 156.577 259.483 163.186 259.483 172.802C259.483 179.683 259.255 182.691 258.481 187.294C256.703 197.548 254.151 205.387 249.776 214.137C247.862 217.966 242.894 225.896 240.98 228.311C240.16 229.314 238.884 229.314 238.519 228.357Z" fill="#4680E4"/>
<path d="M303.098 228.721C303.098 228.402 303.417 227.4 303.827 226.443C304.237 225.531 305.559 221.748 306.744 218.057C318.593 182.144 315.995 143.68 299.406 109.271C295.988 102.162 296.079 102.389 296.626 102.389C297.629 102.389 304.83 118.978 307.838 128.139C312.668 143.087 314.674 156.076 314.674 172.802C314.674 186.93 313.489 196.455 310.162 209.261C307.746 218.604 303.098 231.365 303.098 228.721Z" fill="#4680E4"/>
<path d="M158.171 226.534C150.606 225.166 143.36 222.25 136.888 217.966C132.559 215.095 129.004 211.859 129.004 210.811C129.004 208.988 130.326 209.443 134.245 212.634C140.671 217.92 146.869 221.11 154.89 223.252C159.402 224.437 170.75 224.893 175.854 224.073C198.459 220.472 216.415 201.878 219.195 179.182C219.469 176.949 219.697 173.622 219.697 171.845C219.697 168.472 220.152 167.652 221.565 168.518C222.066 168.791 222.203 170.022 222.158 173.804C221.975 188.023 216.461 200.921 206.024 211.312C198.003 219.379 188.296 224.437 176.902 226.579C172.299 227.4 162.957 227.4 158.171 226.534Z" fill="#4680E4"/>
<path d="M283.957 224.073C283.546 223.343 283.911 221.976 285.734 217.145C291.203 202.47 293.709 188.616 293.709 172.802C293.709 153.433 289.836 136.114 281.541 118.705C279.217 113.783 278.898 112.78 279.399 112.188C279.764 111.778 280.539 111.504 281.177 111.595C282.134 111.687 282.681 112.325 284.002 114.922C292.433 131.557 297.036 150.379 297.492 170.295C297.766 181.278 296.854 190.712 294.621 200.784C292.661 209.489 288.332 222.432 286.782 224.209C285.871 225.258 284.549 225.212 283.957 224.073Z" fill="#4680E4"/>
<path d="M156.987 219.287C148.92 217.419 142.768 214.411 136.661 209.261C119.525 194.814 114.922 170.523 125.495 150.06C127.956 145.32 129.779 143.406 131.83 143.406C133.835 143.406 135.385 144.956 135.385 146.961C135.385 147.827 134.747 149.377 133.835 150.789C130.28 156.395 128.321 162.001 127.592 168.609C126.68 176.903 128.457 185.38 132.696 192.945C135.43 197.822 142.084 204.521 147.006 207.393C152.885 210.811 161.59 213.135 168.563 213.135C171.024 213.135 172.756 214.639 172.756 216.781C172.756 217.647 172.345 218.604 171.616 219.287C170.614 220.336 170.203 220.427 166.056 220.381C163.094 220.381 160.04 220.017 156.987 219.287Z" fill="#4680E4"/>
<path d="M120.755 216.918C112.187 207.757 106.354 196.181 104.121 183.967C103.027 178.134 103.027 167.469 104.121 161.682C106.217 150.379 110.866 140.398 118.294 131.42C120.983 128.139 122.715 127.41 123.307 129.278C123.535 129.962 123.034 130.873 121.393 132.833C113.965 141.447 108.997 152.111 107.083 163.231C106.399 167.424 106.399 177.314 107.083 181.917C108.951 193.903 114.42 205.205 122.806 214.411C125.814 217.647 126.224 218.33 125.814 219.06C124.994 220.609 123.718 220.062 120.755 216.918Z" fill="#4680E4"/>
<path d="M318.821 208.942C318.73 208.623 319.185 205.706 319.869 202.425C320.78 198.004 321.282 196.5 321.783 196.5C322.786 196.5 322.831 198.095 322.011 202.288C320.826 208.304 320.416 209.489 319.687 209.489C319.322 209.489 318.912 209.215 318.821 208.942Z" fill="#4680E4"/>
<path d="M96.9199 190.393C96.2819 189.391 95.1881 181.278 94.9602 175.764C94.5956 167.697 96.0084 155.985 97.6491 152.795C98.7429 150.744 98.7429 153.159 97.6947 157.99C96.0084 165.829 95.735 176.356 97.0566 183.922C97.558 187.021 98.0137 189.846 98.0137 190.165C98.0137 190.849 97.2845 191.031 96.9199 190.393Z" fill="#4680E4"/>
<path d="M11.2403 189.117C11.1035 188.661 10.7845 184.788 10.5111 180.504C9.59959 166.512 11.3314 149.103 15.1141 134.291C20.3551 113.965 29.2877 95.2799 41.8661 78.5542C61.0529 53.0326 87.4404 34.0737 117.702 23.9562C121.439 22.7257 124.72 21.8142 124.948 21.9965C126.27 22.8169 124.72 23.7284 118.522 25.8248C95.0968 33.618 73.7225 46.9256 56.7689 64.2894C26.8722 94.8697 10.9212 135.795 12.5619 177.815C12.7442 182.6 12.9265 187.203 12.9721 188.069C13.0177 189.208 12.7898 189.664 12.2429 189.801C11.8327 189.892 11.377 189.573 11.2403 189.117Z" fill="#4680E4"/>
<path d="M209.169 183.284C207.437 182.372 207.301 181.643 207.62 175.992C208.394 163.505 204.657 153.433 195.998 144.728C190.894 139.624 186.883 137.071 180.594 134.929C170.34 131.466 161.043 131.876 150.789 136.342C146.368 138.211 145.274 138.302 143.816 136.798C141.583 134.61 142.585 131.83 146.231 130.007C159.63 123.262 177.176 123.627 190.484 130.919C207.301 140.171 217.099 158.628 215.094 177.359C214.684 181.051 214.501 181.597 213.271 182.737C211.767 184.104 210.901 184.241 209.169 183.284Z" fill="#4680E4"/>
<path d="M112.871 174.761C112.506 171.799 113.281 164.462 114.466 159.631C118.567 142.814 131.374 128.23 147.461 122.032C162 116.426 178.634 117.11 191.987 123.855C199.325 127.546 208.668 135.704 212.769 142.039C214.82 145.184 215.002 146.277 213.544 146.505C212.86 146.596 212.131 145.867 210.582 143.543C208.03 139.624 200.783 132.332 196.909 129.78C181.369 119.617 162.319 118.021 145.73 125.587C137.891 129.096 129.049 136.661 124.31 143.771C121.438 148.055 118.886 153.569 117.428 158.628C116.289 162.593 115.195 170.614 115.332 174.169C115.468 176.994 115.423 177.131 114.238 177.131C113.281 177.131 113.144 176.858 112.871 174.761Z" fill="#4680E4"/>
<path d="M247.953 172.711C244.808 171.753 244.079 170.523 243.623 165.51C242.439 152.202 237.015 138.302 228.766 127.319C213.955 107.585 191.35 96.4648 166.102 96.4648C160.405 96.4648 160.359 96.4648 159.038 95.1432C156.394 92.4999 157.625 87.9425 161.271 86.8943C166.33 85.527 181.916 87.0765 192.033 90.0389C217.737 97.513 238.656 117.064 248.591 142.814C251.28 149.696 253.878 162.228 253.878 168.062C253.878 170.477 250.186 173.44 247.953 172.711Z" fill="#4680E4"/>
<path d="M228.903 167.014C228.629 166.649 228.174 164.963 227.9 163.231C226.579 154.845 222.295 144.409 217.418 137.573C208.167 124.539 193.537 115.378 177.632 112.598C172.3 111.687 158.855 111.915 154.981 113.054C151.746 113.965 150.014 113.965 149.649 113.054C149.102 111.641 150.242 110.821 153.888 110.046C175.627 105.352 197.32 111.823 213.089 127.638C215.869 130.418 219.287 134.474 220.699 136.616C223.525 140.809 227.217 148.283 228.766 152.84C230.27 157.352 231.774 165.738 231.227 166.604C230.635 167.561 229.541 167.743 228.903 167.014Z" fill="#4680E4"/>
<path d="M76.2746 162.73C75.6366 160.998 78.4166 148.1 81.0143 141.128C92.4535 110.228 119.525 87.8513 152.475 82.0634C161.179 80.5594 181.414 80.8329 183.146 82.5191C183.465 82.8381 183.602 83.4306 183.42 83.8863C183.146 84.6155 182.736 84.6611 179.865 84.2965C178.087 84.1142 171.935 83.9319 166.147 83.9775C156.622 84.0231 155.164 84.1142 150.014 85.2536C130.326 89.4464 113.691 98.9258 100.839 113.327C89.6279 125.906 81.8347 141.857 79.5104 157.306C79.1002 159.813 78.6445 162.183 78.4622 162.547C77.9153 163.55 76.6392 163.641 76.2746 162.73Z" fill="#4680E4"/>
<path d="M300.363 149.787C299.862 149.285 299.361 148.328 299.224 147.645C298.221 142.404 295.487 132.468 293.709 127.592C289.425 115.697 282.042 102.07 274.75 92.5455C268.598 84.57 268.689 84.7067 270.33 82.6103C271.059 81.6988 271.651 81.4253 273.019 81.4253C274.659 81.4253 275.024 81.6988 276.984 84.0687C289.517 99.1081 299.907 120.072 304.602 139.76C306.425 147.371 306.47 148.055 305.376 149.468C304.146 151.017 301.73 151.154 300.363 149.787Z" fill="#4680E4"/>
<path d="M261.944 142.768C255.791 122.716 241.162 103.028 223.707 91.2238C221.155 89.5376 220.563 88.6261 221.565 87.988C222.705 87.3044 234.189 96.3737 240.433 102.936C248.135 111.049 253.877 119.206 258.435 128.595C260.941 133.79 263.813 141.264 264.223 143.634C264.451 145.001 264.359 145.229 263.585 145.229C262.947 145.229 262.536 144.637 261.944 142.768Z" fill="#4680E4"/>
<path d="M52.6672 140.672C52.2115 139.943 52.804 137.846 55.265 131.101C59.4578 119.844 66.4762 107.448 74.1327 97.8321C75.8645 95.6901 79.9206 91.315 83.202 88.0336C107.402 63.8793 141.218 51.2096 175.171 53.5339C183.556 54.1264 187.749 54.7188 195.861 56.633C201.102 57.8179 201.923 58.2281 201.057 59.2763C200.647 59.732 199.599 59.6409 195.497 58.5927C187.066 56.4507 181.506 55.7671 170.568 55.5392C155.938 55.2657 145.502 56.5874 133.607 60.2333C96.9654 71.5357 68.1625 99.1993 56.0853 134.702C54.08 140.535 53.3508 141.811 52.6672 140.672Z" fill="#4680E4"/>
<path d="M224.892 130.326C221.93 126.179 213.909 118.249 209.443 115.059C201.102 109.18 189.709 104.349 179.819 102.572C173.53 101.432 160.997 101.432 154.981 102.572C145.046 104.486 134.108 109.089 125.951 114.831C123.717 116.381 119.525 120.072 116.608 122.989C113.691 125.951 111.139 128.139 111.002 127.911C110.592 127.273 112.78 124.63 117.018 120.619C127.455 110.638 139.258 104.44 153.614 101.432C160.633 99.9285 174.031 99.9285 181.187 101.432C193.127 103.848 204.11 108.998 213.362 116.381C218.831 120.71 227.9 130.965 227.9 132.742C227.9 134.018 227.034 133.289 224.892 130.326Z" fill="#4680E4"/>
<path d="M277.667 130.554C277.439 130.235 276.482 128.139 275.57 125.951C271.013 114.922 262.354 101.706 253.512 92.3176C248.773 87.3044 241.39 80.8785 235.966 77.0958C232.184 74.4525 230.953 72.7662 232.822 72.7662C234.098 72.7662 244.625 80.924 250.186 86.2562C262.399 97.9688 270.967 110.319 277.986 126.453C279.353 129.597 279.535 131.101 278.578 131.101C278.35 131.101 277.94 130.828 277.667 130.554Z" fill="#4680E4"/>
<path d="M316.405 128.048C316.177 127.592 315.403 125.587 314.719 123.582C301.092 83.6129 272.654 51.4375 234.964 33.299C222.021 27.0553 207.164 22.3156 194.039 20.128C192.398 19.8546 191.395 18.8519 192.079 18.2139C192.671 17.5759 204.11 19.9457 212.633 22.4067C214.912 23.0903 219.469 24.6399 222.841 25.8704C262.445 40.7276 294.758 71.3534 311.666 110.137C314.856 117.429 318.274 127.319 317.955 128.185C317.636 129.05 316.907 128.959 316.405 128.048Z" fill="#4680E4"/>
<path d="M29.6066 121.212C34.6197 107.722 42.185 94.3684 51.8012 81.8811C55.994 76.5033 70.0765 61.8284 71.1247 61.8284C71.4437 61.8284 68.7548 64.7452 65.1089 68.3456C55.7662 77.5971 49.7959 84.9346 43.2788 95.3255C39.4962 101.341 33.8905 112.461 31.2016 119.252C30.0623 122.26 28.9229 124.721 28.6951 124.721C28.4672 124.721 28.8774 123.126 29.6066 121.212Z" fill="#4680E4"/>
<path d="M82.5186 118.614C82.5186 118.249 83.6579 116.381 85.0707 114.421C98.1505 96.1002 116.38 82.9293 137.663 76.3666C142.585 74.8171 151.427 72.9941 156.03 72.4928C158.901 72.2193 159.083 72.2649 159.083 73.1308C159.083 74.1335 158.855 74.2246 153.842 74.8171C147.006 75.683 136.524 78.463 129.688 81.2886C112.324 88.4438 95.6895 101.934 85.9366 116.654C84.2959 119.115 82.5186 120.163 82.5186 118.614Z" fill="#4680E4"/>
<path d="M78.3254 110.319C76.9126 109.59 75.6821 107.539 75.6821 105.944C75.6821 104.486 76.8215 102.8 81.3333 97.6042C100.201 75.8653 127.044 62.0563 156.121 59.094C163.868 58.2736 179.136 58.7294 186.2 59.9599C203.974 63.0589 220.699 70.0318 234.28 79.967C238.61 83.1116 239.294 83.9319 239.294 86.2562C239.294 88.6261 238.018 90.3579 235.693 91.0415C233.688 91.634 232.64 91.2238 228.173 87.9425C216.051 79.0099 199.598 72.2649 183.875 69.7583C177.586 68.8013 164.187 68.4367 157.488 69.0747C129.596 71.7636 104.85 84.9801 86.3921 107.038C84.9793 108.77 83.4297 110.319 82.974 110.593C81.7891 111.231 79.7838 111.14 78.3254 110.319Z" fill="#4680E4"/>
<path d="M35.258 73.3587C34.1187 72.903 34.6656 70.8521 36.5797 68.4823C61.9645 37.4918 94.5501 17.4847 133.106 9.23577C145.457 6.59247 151.336 6.04557 167.287 6C179.09 6 183.283 6.1823 188.023 6.82034C207.118 9.46364 223.799 14.3857 239.841 22.0877C247.178 25.5969 247.999 26.2805 247.041 28.1035C246.403 29.2884 245.446 29.2429 243.076 27.9212C235.01 23.2726 218.968 17.2113 206.936 14.2034C192.079 10.4663 179.865 9.1902 163.458 9.55479C151.29 9.82824 145.684 10.4207 134.929 12.6083C107.037 18.2595 80.6955 31.3393 59.2756 50.1614C54.9005 54.0352 45.6034 63.6514 41.5928 68.5734C37.5823 73.3587 36.762 73.9968 35.258 73.3587Z" fill="#4680E4"/>
<path d="M254.424 70.442C253.877 70.2141 252.009 68.938 250.322 67.6164C238.838 58.4104 223.069 49.9791 208.987 45.5584C206.981 44.9204 204.976 44.0545 204.52 43.5987C203.199 42.3682 203.381 39.9984 204.839 38.7223C205.523 38.1754 206.343 37.6741 206.708 37.6741C209.123 37.6741 226.533 44.5558 232.913 48.065C242.939 53.5339 255.153 61.7829 258.116 65.1098C260.258 67.5708 257.478 71.5813 254.424 70.442Z" fill="#4680E4"/>
<path d="M232.686 64.9731C216.917 55.1746 197.685 48.9309 177.997 47.2447C171.479 46.6522 170.477 46.3788 170.477 44.966C170.477 43.2797 171.571 43.0063 177.222 43.3253C195.588 44.3735 217.054 51.1185 233.688 61.0081C238.975 64.1527 239.795 65.0642 238.565 66.4314C237.471 67.6619 236.787 67.4796 232.686 64.9731Z" fill="#4680E4"/>
<path d="M258.435 58.1369C251.963 52.9415 241.664 46.4699 233.096 42.1859C228.447 39.8617 224.847 37.8564 225.166 37.7652C226.214 37.4006 241.436 45.4217 248.181 49.888C255.473 54.6733 262.081 59.732 262.081 60.4612C262.081 61.0992 262.263 61.1904 258.435 58.1369Z" fill="#4680E4"/>
<path d="M97.1018 44.0089C97.1018 43.0063 112.278 36.3069 121.028 33.4357C129.277 30.7012 134.928 29.2884 143.132 27.8756C153.067 26.1894 168.653 25.1412 168.653 26.235C168.653 26.4173 165.099 26.7363 160.815 26.873C141.719 27.4655 122.168 32.3875 104.075 41.0922C100.246 42.9607 97.1018 44.2368 97.1018 44.0089Z" fill="#4680E4"/>
</g>
<defs>
<clipPath id="clip0_723_2991">
<rect width="335" height="335" fill="white"/>
</clipPath>
</defs>
</svg>
