<svg width="40" height="40" viewBox="0 0 40 40" fill="none" xmlns="http://www.w3.org/2000/svg">
<path fill-rule="evenodd" clip-rule="evenodd" d="M30.8033 35.8654C28.0095 37.7286 25.1115 38.7123 21.5558 38.9859C20.9306 39.0315 19.0095 38.9599 18.2345 38.8622C14.0601 38.3149 10.4588 36.5559 7.51528 33.6178C6.07606 32.1845 5.20341 31.0314 4.27215 29.3571C2.62454 26.3799 1.79096 22.6143 2.04494 19.2853C2.40312 14.6533 4.194 10.6988 7.39154 7.48707C8.49864 6.37956 9.13684 5.83884 10.2244 5.1157C12.7056 3.46095 15.2063 2.52934 18.2671 2.11239C19.3807 1.96255 21.647 1.96255 22.7606 2.11239C27.0131 2.68569 30.5688 4.42513 33.5124 7.36329C34.6195 8.4708 35.16 9.10925 35.8829 10.1972C37.5175 12.6468 38.4748 15.2071 38.8851 18.2429C39.0218 19.2267 39.0414 21.5394 38.9176 22.5101C38.3836 26.8489 36.6318 30.4907 33.6361 33.494C32.529 34.6015 31.8908 35.1422 30.8033 35.8654ZM10.8756 32.4191C13.2331 34.3149 16.0594 35.468 19.0746 35.7611C19.8887 35.8458 21.2367 35.8393 22.0442 35.7611C23.8937 35.5722 25.8344 34.9924 27.5406 34.1194C28.2309 33.7676 29.5855 32.8881 30.139 32.4321C30.6861 31.9891 31.8583 30.8229 32.2946 30.2952C37.4198 24.1062 36.9509 15.1159 31.2136 9.54574C30.3018 8.65973 29.9567 8.37308 29.0059 7.73463C27.0131 6.40562 25.0008 5.64991 22.4675 5.26554C21.5884 5.13524 19.27 5.15479 18.3322 5.30462C15.9617 5.66945 13.9625 6.4382 12.0348 7.72812C11.0449 8.39262 10.7454 8.63367 9.84668 9.51316C8.94799 10.3861 8.427 11.005 7.75623 12.0083C4.66289 16.6468 4.33076 22.5231 6.8901 27.52C7.29386 28.3148 8.14697 29.5982 8.71354 30.2822C9.18243 30.836 10.3677 32.0086 10.8756 32.4191ZM29.0955 9.23659C32.3186 11.7067 34.2976 15.3828 34.6328 19.504C34.678 20.1102 34.6135 21.7612 34.5104 22.4965C34.1816 24.8311 33.1953 27.1658 31.7514 29.049C29.8046 31.59 27.0392 33.4152 23.9837 34.1762C22.9781 34.4213 22.0692 34.5503 20.9282 34.6019L19.9806 34.647L19.9484 34.4922C19.9313 34.4181 19.9092 34.1726 19.8864 33.9206C19.8835 33.8875 19.8805 33.8544 19.8775 33.8215C19.8581 33.5377 19.8259 33.2411 19.8066 33.1637C19.7679 33.0218 19.7808 33.0153 20.2707 33.0153C20.8637 33.0153 21.1409 32.8864 21.3021 32.5445C21.4048 32.3325 21.4116 32.3317 22.0489 32.2552L22.0563 32.2543C27.3035 31.6223 31.674 27.2432 32.2993 22.0063C32.3767 21.3807 32.3896 21.342 32.5507 21.2775C32.6474 21.2324 32.7957 21.1292 32.8795 21.0389C33.0213 20.8841 33.0277 20.839 33.0277 19.9361C33.0213 18.2076 32.6023 16.5502 31.7385 14.8282C29.6886 10.7457 25.3825 7.97897 21.0571 7.95962C20.1547 7.95962 20.1095 7.96607 19.9548 8.10796C19.8646 8.1918 19.7614 8.34014 19.7163 8.43688C19.6519 8.59811 19.6132 8.61101 18.9879 8.6884C13.7471 9.32044 9.37017 13.6995 8.74489 18.9364C8.66754 19.562 8.65464 19.6007 8.49349 19.6652C8.11316 19.8264 8.01647 20.0135 7.99068 20.6455C7.97135 21.2001 7.9649 21.2259 7.82953 21.1872C7.75862 21.1679 7.4621 21.1356 7.17847 21.1163C7.14566 21.1133 7.1126 21.1103 7.07964 21.1074C6.82768 21.0846 6.58217 21.0625 6.50806 21.0454L6.35335 21.0131L6.39847 20.0651C6.41781 19.5491 6.48228 18.8139 6.54029 18.4398C7.4492 12.2291 12.2839 7.39853 18.5238 6.46982C19.5745 6.31504 21.4761 6.31504 22.4882 6.46338C24.9571 6.84388 27.2004 7.77904 29.0955 9.23659Z" fill="#162E55"/>
<path d="M25.2465 27.1251C24.3204 27.6589 23.2927 27.9925 22.2297 28.1045C21.1667 28.2165 20.092 28.1044 19.075 27.7754C18.0528 27.4483 17.1119 26.9076 16.3147 26.1891C15.5175 25.4706 14.8822 24.5908 14.4509 23.608C13.7854 22.0753 13.6359 20.3679 14.0248 18.7428C14.4137 17.1177 15.32 15.663 16.6073 14.5976C17.4474 13.9226 18.4108 13.4175 19.4438 13.1105C19.7167 13.0343 20.005 13.0325 20.2789 13.1052C20.5528 13.1778 20.8023 13.3224 21.0016 13.5238C21.2009 13.7253 21.3427 13.9763 21.4124 14.2509C21.4821 14.5256 21.4772 14.8139 21.3981 15.086C20.2112 18.831 22.4895 22.2735 26.4255 22.767C26.7068 22.8072 26.9722 22.9221 27.1941 23.0996C27.4161 23.2772 27.5863 23.511 27.6872 23.7766C27.7881 24.0423 27.816 24.3302 27.7679 24.6103C27.7198 24.8904 27.5975 25.1525 27.4138 25.3693C26.7889 26.0656 26.0573 26.6583 25.2465 27.1251Z" fill="#162E55"/>
</svg>
