<svg width="40" height="40" viewBox="0 0 40 40" fill="none" xmlns="http://www.w3.org/2000/svg">
<path d="M6.55475 9.12072C5.95744 9.33765 5.58285 9.66821 5.3095 10.2364C5.0564 10.7632 5.04628 10.8149 5.04628 12.9119V15.0399L4.31735 15.1122C3.13285 15.2258 2.45454 15.7527 2.15082 16.796C1.95847 17.4365 1.94835 26.3411 2.13058 27.1572C2.37355 28.2315 3.29483 28.9133 4.50971 28.9133H5.04628V30.1942C5.04628 31.2996 5.07665 31.5062 5.23864 31.7128L5.43099 31.9607H8.03285H10.6347L10.8271 31.7128C10.9891 31.5062 11.0194 31.2996 11.0194 30.1942V28.9133H20.0298H29.0401V30.2046C29.0401 31.3512 29.0603 31.5165 29.2426 31.7024C29.3539 31.8161 29.5463 31.9297 29.6779 31.9607C29.7994 31.9917 30.9738 32.0123 32.2696 31.9917C35.2056 31.9504 35.0132 32.0743 35.0132 30.1942V28.9133H35.5599C36.2585 28.9133 36.9064 28.6757 37.3215 28.2625C38.0302 27.5704 37.9998 27.8803 37.9998 21.9921C37.9998 16.9097 37.9897 16.6617 37.8075 16.3622C37.2608 15.5048 36.7647 15.2052 35.732 15.1122L35.0234 15.0399L34.993 12.7466C34.9626 10.474 34.9626 10.4533 34.6994 10.0504C34.5577 9.82317 34.2337 9.50293 34.0008 9.33765L33.5655 9.02774L20.2424 9.00708C9.52108 8.98642 6.84835 9.00708 6.55475 9.12072ZM33.2719 10.7322C33.4845 10.9388 33.4946 11.0215 33.4946 13.1082C33.4946 14.3065 33.4541 15.2775 33.4136 15.2775C33.363 15.2775 33.1302 15.4531 32.8872 15.6597C32.1988 16.2692 32.0773 16.6411 32.0773 18.2939V19.7195H20.0804H8.08347V18.6451C8.08347 16.796 7.81013 16.0006 6.96984 15.4841L6.575 15.2258L6.56488 13.0875C6.56488 11.0215 6.575 10.9388 6.7876 10.7322C7.01033 10.5256 7.06095 10.5256 20.0298 10.5256C32.9986 10.5256 33.0492 10.5256 33.2719 10.7322ZM6.30165 16.9406L6.56488 17.2609V20.5562C6.56488 23.7172 6.575 23.8619 6.76736 24.0581C6.96984 24.2647 7.10145 24.2647 20.0601 24.2647H33.1605L33.3529 24.0478C33.5351 23.8412 33.5453 23.6036 33.5756 20.4322L33.606 17.0439L33.8692 16.827C34.092 16.6514 34.2742 16.6204 35.0841 16.6204C35.9548 16.6204 36.056 16.6411 36.2787 16.8787L36.5318 17.1266V22.0024C36.5318 26.8783 36.5318 26.8886 36.3091 27.1262L36.0965 27.3638H20.0298H3.96302L3.77066 27.1468C3.58843 26.9402 3.5783 26.7026 3.5783 21.9714V17.013L3.82128 16.8167C4.01364 16.6514 4.22624 16.6204 5.04628 16.6204C6.02831 16.6204 6.03843 16.6204 6.30165 16.9406ZM32.057 22.0128L32.0267 22.7669L20.0601 22.7978L8.10372 22.8185L8.06322 22.0437L8.03285 21.269H20.0601H32.0874L32.057 22.0128ZM9.50083 29.6881V30.4628H8.03285H6.56488V29.6881V28.9133H8.03285H9.50083V29.6881ZM33.4946 29.6881V30.4628H32.0267H30.5587V29.6881V28.9133H32.0267H33.4946V29.6881Z" fill="#162E55"/>
</svg>
