<svg width="40" height="40" viewBox="0 0 40 40" fill="none" xmlns="http://www.w3.org/2000/svg">
<path fill-rule="evenodd" clip-rule="evenodd" d="M10.1967 5.13464C12.9905 3.27142 15.8885 2.28769 19.4442 2.01407C20.0694 1.96847 21.9905 2.04013 22.7655 2.13785C26.9399 2.68509 30.5412 4.44408 33.4847 7.38224C34.9239 8.81548 35.7966 9.9686 36.7278 11.6429C38.3755 14.6201 39.209 18.3857 38.9551 21.7147C38.5969 26.3467 36.806 30.3012 33.6085 33.5129C32.5014 34.6205 31.8632 35.1612 30.7756 35.8843C28.2944 37.5391 25.7937 38.4707 22.7329 38.8876C21.6193 39.0375 19.353 39.0375 18.2394 38.8876C13.9869 38.3143 10.4312 36.5749 7.48759 33.6367C6.3805 32.5292 5.83998 31.8908 5.11711 30.8028C3.48252 28.3533 2.52521 25.7929 2.11494 22.7571C1.97818 21.7733 1.95864 19.4606 2.08238 18.4899C2.61639 14.1511 4.3682 10.5093 7.36386 7.50602C8.47095 6.39851 9.10916 5.85778 10.1967 5.13464ZM30.1244 8.58095C27.7669 6.68516 24.9406 5.53204 21.9254 5.23888C21.1113 5.15419 19.7633 5.1607 18.9558 5.23888C17.1063 5.42781 15.1656 6.00762 13.4594 6.8806C12.7691 7.2324 11.4145 8.11189 10.861 8.56792C10.3139 9.01093 9.14172 10.1771 8.70539 10.7048C3.58021 16.8938 4.04909 25.8842 9.78644 31.4543C10.6982 32.3403 11.0433 32.6269 11.9941 33.2654C13.9869 34.5944 15.9992 35.3501 18.5325 35.7345C19.4116 35.8648 21.73 35.8452 22.6678 35.6954C25.0383 35.3306 27.0375 34.5618 28.9652 33.2719C29.955 32.6074 30.2546 32.3663 31.1533 31.4869C32.052 30.6139 32.573 29.995 33.2438 28.9917C36.3371 24.3532 36.6692 18.4769 34.1099 13.4801C33.7061 12.6853 32.853 11.4018 32.2865 10.7178C31.8176 10.164 30.6323 8.99138 30.1244 8.58095ZM9.23604 11.9049C11.7061 8.6818 15.3823 6.70281 19.5034 6.36761C20.1096 6.32249 21.7607 6.38695 22.4959 6.49009C24.8306 6.81884 27.1652 7.80511 29.0484 9.24906C31.5895 11.1958 33.4146 13.9612 34.1757 17.0167C34.4207 18.0223 34.5497 18.9313 34.6013 20.0722L34.6465 21.0198L34.4917 21.0521C34.4175 21.0692 34.172 21.0913 33.9199 21.114L33.821 21.123C33.5372 21.1423 33.2405 21.1745 33.1631 21.1939C33.0212 21.2325 33.0148 21.2197 33.0148 20.7297C33.0148 20.1367 32.8858 19.8595 32.544 19.6984C32.332 19.5956 32.3312 19.5888 32.2547 18.9516L32.2538 18.9441C31.6217 13.6969 27.2426 9.32642 22.0057 8.70113C21.3802 8.62378 21.3415 8.61089 21.277 8.44973C21.2318 8.35304 21.1286 8.20478 21.0383 8.12098C20.8836 7.97916 20.8384 7.97271 19.9355 7.97271C18.2071 7.97916 16.5496 8.39816 14.8276 9.26195C10.7452 11.3118 7.97842 15.6179 7.95907 19.9433C7.95907 20.8458 7.96552 20.8909 8.1074 21.0456C8.19124 21.1359 8.33958 21.239 8.43632 21.2841C8.59755 21.3486 8.61045 21.3873 8.68784 22.0125C9.31988 27.2533 13.699 31.6303 18.9359 32.2556C19.5614 32.3329 19.6001 32.3458 19.6646 32.507C19.8259 32.8873 20.0129 32.984 20.6449 33.0098C21.1996 33.0291 21.2254 33.0355 21.1867 33.1709C21.1673 33.2418 21.1351 33.5383 21.1157 33.822L21.1068 33.9208L21.1068 33.9209L21.1068 33.9211C21.084 34.1729 21.0619 34.4183 21.0448 34.4924L21.0125 34.6471L20.0645 34.602C19.5485 34.5826 18.8133 34.5182 18.4393 34.4602C12.2285 33.5512 7.39797 28.7166 6.46927 22.4767C6.31448 21.4259 6.31448 19.5243 6.46282 18.5123C6.84333 16.0434 7.77849 13.8001 9.23604 11.9049ZM21.2193 9.44584C21.0474 9.76403 20.812 9.8404 19.8192 9.90404C18.7882 9.97404 17.7127 10.1968 16.8409 10.5213C16.1599 10.7759 16.0581 10.8204 15.3326 11.2277L14.8108 11.5141L15.0971 11.7241C15.4726 11.9851 15.7208 12.2905 15.9372 12.7487C16.0835 13.0669 16.109 13.1942 16.109 13.6906C16.1026 14.4797 15.9372 14.8934 15.4153 15.4152C14.8935 15.9371 14.4798 16.1025 13.6907 16.1089C13.1943 16.1089 13.067 16.0834 12.7488 15.9371C12.2906 15.7207 11.9852 15.4725 11.7242 15.097L11.5142 14.8106L11.2279 15.3325C10.8206 16.058 10.776 16.1598 10.5215 16.8407C10.2033 17.7062 9.98052 18.7754 9.90415 19.8254C9.83415 20.8182 9.75778 21.0537 9.44595 21.2191L9.25503 21.3273L9.29321 21.7855C9.38231 22.931 9.77687 24.242 10.4133 25.5275C11.0051 26.7112 11.5461 27.4558 12.5452 28.4549C13.5443 29.4541 14.2889 29.995 15.4726 30.5869C16.7581 31.2233 18.0691 31.6178 19.2146 31.7069L19.6728 31.7451L19.781 31.5542C19.9465 31.2487 20.2137 31.1469 20.952 31.1087L21.6075 31.0769L21.7475 30.6569C21.932 30.1096 22.4093 28.9641 22.5748 28.6904C22.6448 28.5695 22.6893 28.4549 22.6702 28.4422C22.6575 28.4231 22.4284 28.4613 22.1738 28.5186C21.9193 28.5759 21.3911 28.6395 21.0092 28.6586C20.4238 28.6904 20.271 28.6777 20.0992 28.5886C19.6346 28.3468 19.4819 27.6658 19.8065 27.284C20.0483 26.9912 20.1501 26.9594 20.9329 26.8958C22.492 26.7685 23.7839 26.2021 24.8785 25.1775C26.0686 24.0638 26.8895 22.3201 26.8959 20.8946C26.9023 20.36 26.9914 20.0736 27.2395 19.8445C27.4305 19.6727 27.5132 19.6409 27.7678 19.6409C28.1369 19.6409 28.436 19.8063 28.5887 20.0991C28.6778 20.2709 28.6905 20.4236 28.6587 21.0091C28.6396 21.391 28.576 21.9192 28.5187 22.1737C28.4614 22.4283 28.4232 22.6574 28.4423 22.6701C28.4551 22.6892 28.5696 22.6447 28.6905 22.5747C28.9642 22.4092 30.1097 21.9319 30.657 21.7473L31.077 21.6073L31.1152 20.9455C31.1597 20.2009 31.2552 19.94 31.5543 19.7809L31.7452 19.6727L31.707 19.2145C31.5543 17.318 30.6124 15.0652 29.2633 13.3978C28.7287 12.736 27.7423 11.8069 27.0168 11.285C26.3104 10.7823 24.8722 10.0504 24.0639 9.78312C23.3321 9.54766 22.3711 9.33765 21.7856 9.2931L21.3274 9.25492L21.2193 9.44584ZM21.4102 16.1789C22.002 16.2998 22.7911 16.6689 23.2812 17.0635C24.2739 17.8462 24.9231 19.2081 24.9231 20.5C24.9231 21.4482 24.5412 22.5237 23.9367 23.2811C23.1539 24.2738 21.792 24.923 20.5001 24.923C19.2082 24.923 17.8464 24.2738 17.0636 23.2811C15.9945 21.9446 15.7844 20.1118 16.5227 18.5908C17.42 16.7389 19.3928 15.7652 21.4102 16.1789ZM18.5951 17.5388C18.5951 17.5094 18.9029 17.4092 19.2827 17.3148C19.7215 17.2087 20.5728 17.2087 21.0181 17.3148C22.3344 17.6272 23.4281 18.647 23.6966 19.8081C23.7948 20.2384 23.7882 20.9104 23.6704 21.2935C23.3298 22.4488 22.3017 23.3742 21.0181 23.6807C20.5597 23.7927 19.7084 23.7927 19.25 23.6807C17.9337 23.3683 16.8728 22.378 16.565 21.1815C16.421 20.6333 16.5781 19.4014 16.827 19.1539C16.8532 19.1303 16.9514 19.2128 17.0431 19.3425C17.2723 19.6549 17.6521 19.8258 18.104 19.8258C18.8636 19.8258 19.3875 19.3543 19.3875 18.6705C19.3875 18.2697 19.1976 17.922 18.8571 17.7216C18.713 17.6331 18.5951 17.5565 18.5951 17.5388Z" fill="#162E55"/>
</svg>
