<svg width="40" height="40" viewBox="0 0 40 40" fill="none" xmlns="http://www.w3.org/2000/svg">
<path fill-rule="evenodd" clip-rule="evenodd" d="M12.3661 18.5406C17.0869 13.8198 24.7407 13.8198 29.4615 18.5406C29.9496 19.0287 29.9496 19.8202 29.4615 20.3083C28.9733 20.7965 28.1819 20.7965 27.6937 20.3083C23.9493 16.5639 17.8783 16.5639 14.1339 20.3083C13.6457 20.7965 12.8543 20.7965 12.3661 20.3083C11.878 19.8202 11.878 19.0287 12.3661 18.5406Z" fill="#162E55"/>
<path fill-rule="evenodd" clip-rule="evenodd" d="M15.6503 22.1067C18.5571 19.1999 23.2699 19.1999 26.1767 22.1067C26.6648 22.5949 26.6648 23.3863 26.1767 23.8745C25.6885 24.3627 24.8971 24.3627 24.4089 23.8745C22.4784 21.944 19.3485 21.944 17.4181 23.8745C16.9299 24.3627 16.1385 24.3627 15.6503 23.8745C15.1621 23.3863 15.1621 22.5949 15.6503 22.1067Z" fill="#162E55"/>
<path fill-rule="evenodd" clip-rule="evenodd" d="M20.9653 27.1982C21.7938 27.1982 22.4653 26.5267 22.4653 25.6982C22.4653 24.8698 21.7938 24.1982 20.9653 24.1982C20.1369 24.1982 19.4653 24.8698 19.4653 25.6982C19.4653 26.5267 20.1369 27.1982 20.9653 27.1982Z" fill="#162E55"/>
<path fill-rule="evenodd" clip-rule="evenodd" d="M5.13463 30.8033C3.27141 28.0095 2.28768 25.1115 2.01406 21.5558C1.96846 20.9306 2.04012 19.0095 2.13784 18.2345C2.68508 14.0601 4.44407 10.4588 7.38222 7.51528C8.81547 6.07606 9.96858 5.20341 11.6429 4.27215C14.6201 2.62454 18.3857 1.79096 21.7147 2.04494C26.3467 2.40312 30.3012 4.194 33.5129 7.39154C34.6204 8.49864 35.1612 9.13684 35.8843 10.2244C37.5391 12.7056 38.4707 15.2063 38.8876 18.2671C39.0374 19.3807 39.0374 21.647 38.8876 22.7606C38.3143 27.0131 36.5749 30.5688 33.6367 33.5124C32.5292 34.6195 31.8908 35.16 30.8028 35.8829C28.3532 37.5175 25.7929 38.4748 22.7571 38.8851C21.7733 39.0218 19.4606 39.0414 18.4899 38.9176C14.1511 38.3836 10.5093 36.6318 7.506 33.6361C6.3985 32.529 5.85777 31.8908 5.13463 30.8033ZM8.58094 10.8756C6.68514 13.2331 5.53203 16.0594 5.23887 19.0746C5.15418 19.8887 5.16069 21.2367 5.23887 22.0442C5.4278 23.8937 6.00761 25.8344 6.88059 27.5406C7.23238 28.2309 8.11188 29.5855 8.56791 30.139C9.01091 30.6861 10.1771 31.8583 10.7048 32.2946C16.8938 37.4198 25.8841 36.9509 31.4543 31.2136C32.3403 30.3018 32.6269 29.9567 33.2654 29.0059C34.5944 27.0131 35.3501 25.0008 35.7345 22.4675C35.8648 21.5884 35.8452 19.27 35.6954 18.3322C35.3306 15.9617 34.5618 13.9625 33.2719 12.0348C32.6074 11.0449 32.3663 10.7454 31.4868 9.84668C30.6139 8.94799 29.995 8.427 28.9917 7.75623C24.3532 4.66289 18.4769 4.33076 13.48 6.8901C12.6852 7.29386 11.4018 8.14697 10.7178 8.71354C10.164 9.18243 8.99137 10.3677 8.58094 10.8756ZM31.7634 29.0955C29.2933 32.3186 25.6172 34.2976 21.496 34.6328C20.8898 34.678 19.2388 34.6135 18.5035 34.5104C16.1689 34.1816 13.8342 33.1953 11.951 31.7514C9.40997 29.8046 7.5848 27.0392 6.82378 23.9837C6.5787 22.9781 6.44972 22.0692 6.39812 20.9282L6.35298 19.9806L6.50776 19.9484C6.58189 19.9313 6.82742 19.9092 7.07944 19.8864C7.11247 19.8835 7.14561 19.8805 7.17849 19.8775C7.46226 19.8581 7.75893 19.8259 7.83633 19.8066C7.97821 19.7679 7.98466 19.7808 7.98466 20.2707C7.98466 20.8638 8.11365 21.1409 8.45546 21.3021C8.66747 21.4048 8.66829 21.4116 8.74479 22.0489L8.74568 22.0563C9.37772 27.3035 13.7568 31.674 18.9937 32.2993C19.6193 32.3767 19.658 32.3896 19.7225 32.5507C19.7676 32.6474 19.8708 32.7957 19.9611 32.8795C20.1159 33.0213 20.161 33.0277 21.0639 33.0277C22.7924 33.0213 24.4498 32.6023 26.1718 31.7385C30.2543 29.6886 33.021 25.3825 33.0404 21.0571C33.0404 20.1547 33.0339 20.1095 32.892 19.9548C32.8082 19.8646 32.6599 19.7614 32.5631 19.7163C32.4019 19.6519 32.389 19.6132 32.3116 18.9879C31.6796 13.7471 27.3005 9.37017 22.0636 8.74489C21.438 8.66754 21.3993 8.65465 21.3348 8.49349C21.1736 8.11316 20.9865 8.01647 20.3545 7.99069C19.7999 7.97135 19.7741 7.9649 19.8128 7.82953C19.8321 7.75862 19.8644 7.4621 19.8837 7.17847C19.8867 7.14566 19.8897 7.1126 19.8926 7.07964C19.9154 6.82768 19.9375 6.58217 19.9546 6.50806L19.9869 6.35335L20.935 6.39847C21.4509 6.41781 22.1861 6.48228 22.5602 6.54029C28.7709 7.4492 33.6015 12.2839 34.5302 18.5238C34.685 19.5745 34.685 21.4761 34.5366 22.4882C34.1561 24.9571 33.221 27.2004 31.7634 29.0955Z" fill="#162E55"/>
</svg>
