<svg width="40" height="40" viewBox="0 0 40 40" fill="none" xmlns="http://www.w3.org/2000/svg">
<path d="M8.75497 2.07859C7.51415 2.23275 5.21979 2.70712 4.15455 3.02732C2.94884 3.39495 2.8552 3.56098 3.12443 4.82991C3.41708 6.20557 4.15455 8.41138 4.76326 9.69217C6.83521 14.0801 9.89045 16.2147 13.7885 16.025C16.0712 15.9064 16.7969 15.598 16.6096 14.8153C16.4692 14.2461 16.1414 14.1512 14.9591 14.341C13.6363 14.5663 12.8403 14.5663 11.8219 14.341C9.49245 13.8429 7.57268 12.0166 6.12114 8.90946C5.4422 7.47451 4.8452 5.69563 4.81008 5.0078C4.77496 4.52157 4.77496 4.50971 5.30173 4.35555C7.88874 3.54912 12.0209 3.27636 13.8939 3.79816C17.0076 4.64016 18.8572 7.51008 18.4124 10.7595C18.2134 12.1826 18.2602 12.1589 17.312 11.222C16.1999 10.1191 14.6782 8.88575 13.2735 7.93701C11.9507 7.05943 9.70315 5.76678 9.30515 5.67191C8.74327 5.51774 8.16968 6.26487 8.45062 6.79853C8.52086 6.92898 9.11786 7.32034 9.77339 7.65239C13.7183 9.71589 17.1364 12.7637 18.4709 15.4439C19.0796 16.6535 19.2318 17.4243 19.2318 19.2269V20.8042H14.0343C8.4038 20.8042 8.55597 20.7805 8.39209 21.4446C8.35697 21.5869 8.34527 22.8084 8.36868 24.1604C8.4038 26.9947 8.4038 26.971 9.44562 27.0658L10.0894 27.1133L10.2767 27.9553C10.3821 28.4178 10.8855 30.7659 11.3888 33.1852C11.9975 36.0077 12.3955 37.6442 12.5126 37.7865C12.6999 37.9881 13.0745 38 19.9926 38C25.7403 38 27.3088 37.9644 27.4727 37.8458C27.66 37.7154 28.6082 33.5765 29.732 28.0264L29.9076 27.1133L30.5631 27.0658C31.6283 26.971 31.64 26.9473 31.64 23.8995C31.64 21.8597 31.6049 21.2786 31.4762 21.0888C31.3123 20.8754 31.0781 20.8635 26.0563 20.8042L20.8121 20.7449L20.8355 19.9503C20.9174 17.3413 23.5512 14.7442 28.1283 12.7637C28.8657 12.4435 29.8607 12.0521 30.3407 11.898C31.2889 11.5896 31.6049 11.2813 31.4762 10.7832C31.4293 10.6172 31.2654 10.4037 31.1016 10.2851C30.7972 10.0954 30.7504 10.0954 29.4861 10.5342C27.5781 11.1864 24.8389 12.5265 23.8439 13.2974C23.6449 13.4397 23.4576 13.5701 23.4225 13.5701C23.282 13.5701 23.7034 11.9454 24.0312 11.2457C24.7453 9.72775 26.0329 8.70786 27.6366 8.36394C29.3574 7.99631 33.4076 8.39952 35.023 9.08735L35.3742 9.24152L35.023 10.297C33.7939 14.0089 31.6283 16.2266 28.7604 16.7365C27.5547 16.9381 26.2436 16.8314 24.9677 16.4045C24.558 16.274 24.1131 16.191 23.961 16.2266C23.6215 16.3214 23.4225 16.6772 23.4693 17.1041C23.5161 17.5074 23.9727 17.7683 25.155 18.0766C30.2821 19.4048 34.5782 16.5823 36.5448 10.6053C36.9896 9.25338 37.095 8.58927 36.9194 8.25721C36.7906 8.02003 35.7605 7.61682 34.2739 7.23732C32.0029 6.65622 28.737 6.51391 27.1684 6.91713C25.8222 7.2729 24.9091 7.7947 23.9375 8.76715C22.6499 10.0835 21.9124 11.8505 21.7251 14.1038C21.6549 15.0051 21.6315 15.0762 21.1515 15.6218C20.8706 15.9301 20.6131 16.2029 20.5779 16.2147C20.5428 16.2266 20.3321 15.7996 20.1214 15.266C19.899 14.7323 19.6181 14.1394 19.4893 13.9615L19.2552 13.6294L19.6181 12.5621C19.9575 11.5778 19.9809 11.3762 19.9809 9.89378C19.9809 8.44696 19.9458 8.19791 19.6415 7.29662C18.8104 4.81805 16.9491 3.07476 14.3153 2.30391C13.6129 2.09044 13.051 2.03115 11.5644 2.00743C10.5343 1.98371 9.27004 2.01929 8.75497 2.07859ZM30.1183 23.8876V25.4293H20.0512H9.9841V23.8876V22.3459H20.0512H30.1183V23.8876ZM28.3038 27.3505C28.1985 27.8011 26.3724 36.3634 26.3724 36.4109C26.3724 36.4346 23.5161 36.4583 20.0161 36.4583H13.6598L12.6999 31.9162C12.1731 29.4258 11.74 27.3149 11.74 27.2319C11.74 27.1251 13.4842 27.0896 20.0512 27.0896H28.3624L28.3038 27.3505Z" fill="#162E55"/>
</svg>
